<svg id="Layer_1" data-name="Layer 1" xmlns="http://www.w3.org/2000/svg" viewBox="0 0 50 50"><defs><style>.cls-1{fill:#7cc7ff;}.cls-2{fill:#5aaafa;}.cls-3{fill:#5596e6;}.cls-4{fill:#4178be;}.cls-5{fill:#c0e6ff;}</style></defs><title>Auto</title><path class="cls-1" d="M44.1,27l-2.88.16a4.88,4.88,0,0,1,.45.33A8.35,8.35,0,0,1,44.79,34v7.26a2.36,2.36,0,0,1-2.36,2.36H6.87a2.36,2.36,0,0,1-2.36-2.36V34a8.35,8.35,0,0,1,3.12-6.5q.2-.17.43-.32L4.92,27a1.17,1.17,0,0,1-1.11-1.16,2.16,2.16,0,0,1,1.93-2.15L8,23.44a1.13,1.13,0,0,1,1.26,1.12v2a7.06,7.06,0,0,1,1.4-.41l0-.06,2.25-4.27a6.86,6.86,0,0,1,5.49-3.65L20.15,18c1.45-.12,2.91-.19,4.36-.2s3.1.06,4.65.2l1.71.15a6.86,6.86,0,0,1,5.49,3.65l2.25,4.27,0,.06a7.31,7.31,0,0,1,1.12.3V24.56A1.13,1.13,0,0,1,41,23.44l2.26.25a2.16,2.16,0,0,1,1.92,2.22A1.15,1.15,0,0,1,44.1,27Z"/><path class="cls-2" d="M44.1,27l-2.88.16a4.88,4.88,0,0,1,.45.33A8.35,8.35,0,0,1,44.79,34v7.26a2.36,2.36,0,0,1-2.36,2.36H24.51V17.8c1.55,0,3.1.06,4.65.2l1.71.15a6.86,6.86,0,0,1,5.49,3.65l2.25,4.27,0,.06a7.31,7.31,0,0,1,1.12.3V24.56A1.13,1.13,0,0,1,41,23.44l2.26.25a2.16,2.16,0,0,1,1.92,2.22A1.15,1.15,0,0,1,44.1,27Z"/><path class="cls-3" d="M11.33,43.63v1a3.41,3.41,0,0,1-6.82,0V41.26a2.36,2.36,0,0,0,2.36,2.36Z"/><path class="cls-4" d="M44.79,41.26v3.36a3.41,3.41,0,0,1-6.82,0v-1h4.45A2.36,2.36,0,0,0,44.79,41.26Z"/><path class="cls-2" d="M44.79,38.09v3.17a2.36,2.36,0,0,1-2.36,2.36H6.87a2.36,2.36,0,0,1-2.36-2.36V38.09Z"/><path class="cls-5" d="M37.07,26l-8-.4c-1.76-.08-3.16-.12-4.57-.12s-2.65,0-4.29.12l-8,.4,1.88-3.58a5.53,5.53,0,0,1,4.43-3l1.71-.15c1.62-.14,2.94-.21,4.25-.22s2.8.07,4.53.22l1.71.15a5.53,5.53,0,0,1,4.43,3Z"/><path class="cls-5" d="M14.7,34A1.54,1.54,0,0,1,13,35.29l-4.88-.47a1.54,1.54,0,0,1-1.38-1.7l.08-.68a1.54,1.54,0,0,1,1.89-1.32l4.8,1.15A1.54,1.54,0,0,1,14.7,34Z"/><path class="cls-2" d="M32.45,33.92a3,3,0,0,1-3,3H19.77a3,3,0,0,1-3-3,1.63,1.63,0,0,1,1.63-1.63H30.82A1.63,1.63,0,0,1,32.45,33.92Z"/><path class="cls-1" d="M42.39,32.44l.08.68a1.54,1.54,0,0,1-1.38,1.7l-4.88.47a1.54,1.54,0,0,1-.5-3l4.8-1.15A1.54,1.54,0,0,1,42.39,32.44Z"/><path class="cls-3" d="M44.79,38.09v3.17a2.36,2.36,0,0,1-2.36,2.36H24.51V38.09Z"/><path class="cls-1" d="M37.07,26l-8-.4c-1.76-.08-3.16-.12-4.57-.12V19.09c1.41,0,2.8.07,4.53.22l1.71.15a5.53,5.53,0,0,1,4.43,3Z"/><path class="cls-3" d="M32.45,33.92a3,3,0,0,1-3,3h-5V32.29h6.31A1.63,1.63,0,0,1,32.45,33.92Z"/></svg>