<?xml version="1.0" encoding="UTF-8" standalone="no"?>
<svg width="47px" height="34px" viewBox="0 0 47 34" version="1.1" xmlns="http://www.w3.org/2000/svg" xmlns:xlink="http://www.w3.org/1999/xlink">
    <!-- Generator: Sketch 40.1 (33804) - http://www.bohemiancoding.com/sketch -->
    <title>Auto</title>
    <desc>Created with Sketch.</desc>
    <defs></defs>
    <g id="Page-1" stroke="none" stroke-width="1" fill="none" fill-rule="evenodd">
        <g id="Auto">
            <g id="Layer_1">
                <path d="M44.9232558,10.9302326 L41.7753488,11.1051163 C41.9460481,11.2158686 42.11027,11.336298 42.2672093,11.465814 C44.4234978,13.1983464 45.677709,15.8153063 45.6774419,18.5813953 L45.6774419,26.5167442 C45.6774419,27.941382 44.5225448,29.0962791 43.097907,29.0962791 L4.23,29.0962791 C3.54586481,29.0962791 2.88975002,28.8245074 2.40599339,28.3407508 C1.92223676,27.8569942 1.65046512,27.2008794 1.65046512,26.5167442 L1.65046512,18.5813953 C1.65350776,15.8191384 2.90739382,13.2068758 5.06069767,11.4767442 C5.20643411,11.3528682 5.36310078,11.2362791 5.53069767,11.1269767 L2.09860465,10.9302326 C1.42226001,10.8955203 0.89024698,10.3395427 0.885348837,9.66232558 C0.884074119,8.45477759 1.79420028,7.44090648 2.99488372,7.31232558 L5.46511628,7.03906977 C5.81462461,6.99859122 6.16480701,7.10909477 6.42777891,7.34284756 C6.69075081,7.57660036 6.84154813,7.91141212 6.84232558,8.26325581 L6.84232558,10.4493023 C7.33556015,10.2474834 7.84837455,10.0973021 8.37255814,10.0011628 L8.37255814,9.9355814 L10.8318605,5.26837209 C12.0201204,3.00155653 14.2825301,1.49740438 16.8325581,1.27883721 L18.7453488,1.09302326 C20.3302326,0.961860465 21.9260465,0.885348837 23.5109302,0.874418605 C25.095814,0.863488372 26.8993023,0.94 28.5934884,1.09302326 L30.4625581,1.25697674 C33.0125862,1.47554392 35.2749958,2.97969606 36.4632558,5.24651163 L38.9225581,9.91372093 L38.9225581,9.97930233 C39.3386587,10.0560186 39.7480081,10.1656658 40.1467442,10.3072093 L40.1467442,8.26325581 C40.1471495,7.90926353 40.2994233,7.57246016 40.5649213,7.3383202 C40.8304193,7.10418024 41.1836186,6.99521206 41.5348837,7.03906977 L44.0051163,7.31232558 C45.2311575,7.44868304 46.145547,8.50594591 46.1037209,9.73883721 C46.0714279,10.3788052 45.562899,10.8920427 44.9232558,10.9302326 L44.9232558,10.9302326 Z" id="Shape" fill="#7CC7FF"></path>
                <path d="M44.9232558,10.9302326 L41.7753488,11.1051163 C41.9460481,11.2158686 42.11027,11.336298 42.2672093,11.465814 C44.4234978,13.1983464 45.677709,15.8153063 45.6774419,18.5813953 L45.6774419,26.5167442 C45.6774419,27.941382 44.5225448,29.0962791 43.097907,29.0962791 L23.5109302,29.0962791 L23.5109302,0.874418605 C25.2051163,0.874418605 26.8993023,0.94 28.5934884,1.09302326 L30.4625581,1.25697674 C33.0125862,1.47554392 35.2749958,2.97969606 36.4632558,5.24651163 L38.9225581,9.91372093 L38.9225581,9.97930233 C39.3386587,10.0560186 39.7480081,10.1656658 40.1467442,10.3072093 L40.1467442,8.26325581 C40.1471495,7.90926353 40.2994233,7.57246016 40.5649213,7.3383202 C40.8304193,7.10418024 41.1836186,6.99521206 41.5348837,7.03906977 L44.0051163,7.31232558 C45.2311575,7.44868304 46.145547,8.50594591 46.1037209,9.73883721 C46.0714279,10.3788052 45.562899,10.8920427 44.9232558,10.9302326 L44.9232558,10.9302326 Z" id="Shape" fill="#5AAAFA"></path>
                <path d="M9.10488372,29.1072093 L9.10488372,30.2002326 C9.10488372,32.2587134 7.43615528,33.9274419 5.37767442,33.9274419 C3.31919356,33.9274419 1.65046512,32.2587134 1.65046512,30.2002326 L1.65046512,26.5167442 C1.65046512,27.941382 2.80536222,29.0962791 4.23,29.0962791 L9.10488372,29.1072093 Z" id="Shape" fill="#5596E6"></path>
                <path d="M45.6774419,26.5167442 L45.6774419,30.1893023 C45.6774419,32.2477832 44.0087134,33.9165116 41.9502326,33.9165116 C39.8917517,33.9165116 38.2230233,32.2477832 38.2230233,30.1893023 L38.2230233,29.0962791 L43.0869767,29.0962791 C43.7730038,29.099186 44.4319301,28.8286982 44.9180533,28.3446261 C45.4041765,27.8605541 45.677448,27.2027774 45.6774419,26.5167442 L45.6774419,26.5167442 Z" id="Shape" fill="#4178BE"></path>
                <path d="M45.6774419,23.0518605 L45.6774419,26.5167442 C45.6774419,27.941382 44.5225448,29.0962791 43.097907,29.0962791 L4.23,29.0962791 C3.54586481,29.0962791 2.88975002,28.8245074 2.40599339,28.3407508 C1.92223676,27.8569942 1.65046512,27.2008794 1.65046512,26.5167442 L1.65046512,23.0518605 L45.6774419,23.0518605 Z" id="Shape" fill="#5AAAFA"></path>
                <path d="M37.2393023,9.8372093 L28.4951163,9.4 C26.5713953,9.31255814 25.0411628,9.26883721 23.5,9.26883721 C21.9588372,9.26883721 20.6034884,9.26883721 18.8109302,9.4 L10.0667442,9.8372093 L12.1216279,5.92418605 C13.0643166,4.07116182 14.8931685,2.83266172 16.9637209,2.64511628 L18.8327907,2.48116279 C20.6034884,2.32813953 22.0462791,2.25162791 23.4781395,2.24069767 C24.91,2.22976744 26.5386047,2.3172093 28.4295349,2.48116279 L30.2986047,2.64511628 C32.3691571,2.83266172 34.1980089,4.07116182 35.1406977,5.92418605 L37.2393023,9.8372093 Z" id="Shape" fill="#C0E6FF"></path>
                <path d="M12.7883721,18.5813953 C12.6478024,19.473923 11.8276548,20.0962703 10.9302326,19.9913953 L5.59627907,19.4776744 C5.1488656,19.4336295 4.73766384,19.2124339 4.45431902,18.8633859 C4.1709742,18.5143379 4.03903502,18.0664468 4.08790698,17.6195349 L4.17534884,16.8762791 C4.23080433,16.3977329 4.48864375,15.9658821 4.88360191,15.6900384 C5.27856007,15.4141946 5.7727799,15.3207976 6.24116279,15.4334884 L11.4876744,16.6904651 C12.3503505,16.8816778 12.9183264,17.7073907 12.7883721,18.5813953 L12.7883721,18.5813953 Z" id="Shape" fill="#C0E6FF"></path>
                <path d="M32.1895349,18.4939535 C32.1895349,20.3049337 30.7214453,21.7730233 28.9104651,21.7730233 L18.33,21.7730233 C16.5190198,21.7730233 15.0509302,20.3049337 15.0509302,18.4939535 C15.0509302,17.5099876 15.8485922,16.7123256 16.8325581,16.7123256 L30.407907,16.7123256 C31.3918729,16.7123256 32.1895349,17.5099876 32.1895349,18.4939535 L32.1895349,18.4939535 Z" id="Shape" fill="#5AAAFA"></path>
                <path d="M43.054186,16.8762791 L43.1416279,17.6195349 C43.1904999,18.0664468 43.0585607,18.5143379 42.7752159,18.8633859 C42.491871,19.2124339 42.0806693,19.4336295 41.6332558,19.4776744 L36.2993023,19.9913953 C35.4722596,19.9968748 34.7637651,19.4007099 34.6277971,18.584902 C34.4918292,17.7690942 34.9686758,16.9753724 35.7527907,16.7123256 L40.9993023,15.4553488 C41.4627732,15.3462338 41.950775,15.4385112 42.3424053,15.7093194 C42.7340356,15.9801276 42.9926533,16.4041296 43.054186,16.8762791 L43.054186,16.8762791 Z" id="Shape" fill="#7CC7FF"></path>
                <path d="M45.6774419,23.0518605 L45.6774419,26.5167442 C45.6774419,27.941382 44.5225448,29.0962791 43.097907,29.0962791 L23.5109302,29.0962791 L23.5109302,23.0518605 L45.6774419,23.0518605 Z" id="Shape" fill="#5596E6"></path>
                <path d="M37.2393023,9.8372093 L28.4951163,9.4 C26.5713953,9.31255814 25.0411628,9.26883721 23.5,9.26883721 L23.5,2.2844186 C25.0411628,2.2844186 26.5604651,2.36093023 28.4513953,2.52488372 L30.3204651,2.68883721 C32.3910176,2.87638265 34.2198694,4.11488275 35.1625581,5.96790698 L37.2393023,9.8372093 Z" id="Shape" fill="#7CC7FF"></path>
                <path d="M32.1895349,18.4939535 C32.1895349,20.3049337 30.7214453,21.7730233 28.9104651,21.7730233 L23.4453488,21.7730233 L23.4453488,16.7123256 L30.3423256,16.7123256 C30.8261,16.6945057 31.2962975,16.8743158 31.6447391,17.2103868 C31.9931808,17.5464577 32.189863,18.0098511 32.1895349,18.4939535 L32.1895349,18.4939535 Z" id="Shape" fill="#5596E6"></path>
            </g>
        </g>
    </g>
</svg>