<?xml version="1.0" encoding="utf-8"?>
<!-- Generator: Adobe Illustrator 16.0.0, SVG Export Plug-In . SVG Version: 6.00 Build 0)  -->
<!DOCTYPE svg PUBLIC "-//W3C//DTD SVG 1.1//EN" "http://www.w3.org/Graphics/SVG/1.1/DTD/svg11.dtd">
<svg version="1.1" id="Layer_1" xmlns="http://www.w3.org/2000/svg" xmlns:xlink="http://www.w3.org/1999/xlink" x="0px" y="0px"
	 width="100px" height="100px" viewBox="0 0 100 100" enable-background="new 0 0 100 100" xml:space="preserve">
<g>
	<path fill="#008A54" d="M40.007,36.921"/>
	<g>
		<path fill="#424143" d="M54.199,61.699c-3.728,0-3.728-4.546-7.455-4.546c-2.547,0-3.354,2.119-4.798,3.464L41.479,63.1
			l-0.679,3.6h9.093h9.093l-0.694-3.6l-0.65-3.329C56.796,60.781,55.874,61.699,54.199,61.699z"/>
		<path fill="#424143" d="M58.231,56.03l0.633-3.521v-0.171v-0.171v-3.465v-3.468c0-0.25,0.011-0.476-0.082-0.679
			c-0.092-0.204-0.194-0.384-0.359-0.549c-0.164-0.165-0.346-0.178-0.563-0.256c-0.217-0.078-0.441-0.009-0.692-0.009H53.53h-3.637
			h-3.637H42.62c-0.251,0-0.49-0.068-0.708,0.009c-0.217,0.078-0.414,0.143-0.578,0.308c-0.165,0.165-0.358,0.32-0.45,0.523
			c-0.092,0.204-0.203,0.402-0.203,0.653v3.468v3.465v0.171v0.171l0.754,3.494l0.723,3.495l-0.21,1.118
			c1.444-1.345,2.251-3.464,4.798-3.464c3.727,0,3.727,4.546,7.455,4.546c1.675,0,2.597-0.918,3.442-1.929l-0.043-0.22L58.231,56.03
			z"/>
	</g>
	<g>
		<circle fill="#424143" cx="62.673" cy="48.287" r="2.273"/>
		<circle fill="#424143" cx="36.759" cy="48.287" r="2.273"/>
		<g>
			<g>
				<path fill="#424143" d="M63.53,67h-1.516C61.177,67,60,67.375,60,68.631v2.273C60,72.159,61.177,73,62.015,73h1.516
					c0.836,0,1.47-0.841,1.47-2.096v-2.273C65,67.375,64.366,67,63.53,67z"/>
				<g>
					<path fill="#424143" d="M54.546,85.454C52.036,85.454,50,88,50,90h9.093C59.093,88,57.058,85.454,54.546,85.454z"/>
					<path fill="#424143" d="M53.831,68C52.994,68,52,69.193,52,70.449v11.365C52,83.069,52.994,84,53.831,84h1.516
						C56.184,84,57,83.069,57,81.814V70.449C57,69.193,56.184,68,55.347,68H53.831z"/>
					<path fill="#424143" d="M45,85.454c-2.511,0-4.547,2.546-4.547,4.546h9.092C49.545,88,47.51,85.454,45,85.454z"/>
					<path fill="#424143" d="M45.799,84C46.636,84,47,83.069,47,81.814V70.449C47,69.193,46.636,68,45.799,68h-1.515
						C43.447,68,43,69.193,43,70.449v11.365C43,83.069,43.447,84,44.285,84H45.799z"/>
				</g>
				<path fill="#424143" d="M37.617,67h-1.516C35.265,67,35,67.375,35,68.631v2.273C35,72.159,35.265,73,36.102,73h1.516
					C38.454,73,39,72.159,39,70.904v-2.273C39,67.375,38.454,67,37.617,67z"/>
				<path fill="none" stroke="#FFFFFF" stroke-width="0.4546" stroke-miterlimit="10" d="M31.36,57.153
					c3.728,0,3.728,4.546,7.456,4.546c3.728,0,3.728-4.546,7.455-4.546c3.729,0,3.729,4.546,7.456,4.546
					c3.729,0,3.729-4.546,7.456-4.546c3.729,0,3.729,4.546,7.457,4.546"/>
				<path fill="#424143" d="M63.23,52.828h-1.049c-0.966,0-1.744,1.097-1.744,2.638v1.798v3.987c0,1.541,0.778,2.942,1.744,2.942
					h1.049c0.966,0,1.753-1.401,1.753-2.942v-2.019v-3.767C64.983,53.925,64.196,52.828,63.23,52.828z"/>
				<path fill="#424143" d="M37.317,52.828h-1.049c-0.965,0-1.743,1.097-1.743,2.638v1.798v3.987c0,1.541,0.778,2.942,1.743,2.942
					h1.049c0.966,0,1.754-1.401,1.754-2.942v-2.019v-3.767C39.072,53.925,38.283,52.828,37.317,52.828z"/>
			</g>
			<g>
				<path fill="#424143" d="M60.778,28.118v-0.004l0.036-0.008c-0.097-0.07-0.154-0.123-0.27-0.16l-2.289-1.145
					c-0.994-3.74-3.503-6.617-6.616-7.498l-0.18-1.079h1.932c0.376,0,0.683-0.306,0.683-0.682c0-0.376-0.307-0.682-0.683-0.682
					h-2.159l-0.266-1.592h0.153c0.376,0,0.681-0.305,0.681-0.681c0-0.376-0.305-0.682-0.681-0.682H50.74l-0.076-0.454
					c0-1.256,0.118-3.41-1.136-3.41c-1.256,0-1.137,2.154-1.137,3.41l-0.076,0.454h-0.379c-0.376,0-0.682,0.306-0.682,0.682
					c0,0.376,0.306,0.681,0.682,0.681h0.152l-0.266,1.592h-2.159c-0.377,0-0.682,0.306-0.682,0.682c0,0.376,0.304,0.682,0.682,0.682
					h1.932l-0.189,1.138c-3.02,0.946-5.443,3.78-6.416,7.438l-2.302,1.145c-0.115,0.037-0.25,0.09-0.346,0.16l-0.067,0.008v0.004
					c-0.228,0.208-0.455,0.534-0.455,0.904v1.193v0.17v1.194c0,0.371,0.227,0.697,0.455,0.904v0.005l0.067,0.008
					c0.096,0.071,0.231,0.123,0.346,0.161l2.302,1.144c1.201,4.52,4.615,7.78,8.634,7.78c4.02,0,7.431-3.261,8.632-7.78l2.289-1.144
					c0.115-0.038,0.173-0.09,0.27-0.161l-0.036-0.008v-0.005c0.228-0.207,0.455-0.533,0.455-0.904v-1.194v-0.17v-1.193
					C61.233,28.652,61.006,28.326,60.778,28.118z M56.232,30.216v0.17v1.374c-0.454,3.971-3.361,6.98-6.705,6.98
					c-3.345,0-6.024-3.009-6.706-6.98v-1.374v-0.17v-1.373c0.682-3.97,3.361-6.98,6.706-6.98c3.343,0,6.25,3.01,6.705,6.98V30.216z"
					/>
				<g>
					<path fill="#424143" d="M48.845,34.534c0,0.251-0.203,0.454-0.454,0.454l0,0c-0.251,0-0.455-0.203-0.455-0.454v-0.909
						c0-0.251,0.204-0.455,0.455-0.455l0,0c0.251,0,0.454,0.204,0.454,0.455V34.534z"/>
					<path fill="#424143" d="M49.981,34.534c0,0.251-0.203,0.454-0.454,0.454l0,0c-0.251,0-0.455-0.203-0.455-0.454v-0.909
						c0-0.251,0.204-0.455,0.455-0.455l0,0c0.25,0,0.454,0.204,0.454,0.455V34.534z"/>
					<path fill="#424143" d="M51.119,34.534c0,0.251-0.205,0.454-0.455,0.454l0,0c-0.251,0-0.455-0.203-0.455-0.454v-0.909
						c0-0.251,0.204-0.455,0.455-0.455l0,0c0.25,0,0.455,0.204,0.455,0.455V34.534z"/>
				</g>
				<g>
					<path fill="#424143" d="M46.776,26.01c-1.255,0-2.273,1.018-2.273,2.273c0,1.255,1.018,2.274,2.273,2.274
						s2.272-1.019,2.272-2.274C49.048,27.028,48.031,26.01,46.776,26.01z M46.776,29.988c-0.942,0-1.705-0.764-1.705-1.705
						s0.763-1.705,1.705-1.705v1.705h1.705C48.48,29.225,47.717,29.988,46.776,29.988z"/>
					<path fill="#424143" d="M52.278,26.01c-1.255,0-2.273,1.018-2.273,2.273c0,1.255,1.018,2.274,2.273,2.274
						c1.256,0,2.273-1.019,2.273-2.274C54.552,27.028,53.534,26.01,52.278,26.01z M52.278,29.988c-0.941,0-1.704-0.764-1.704-1.705
						s0.763-1.705,1.704-1.705v1.705h1.705C53.983,29.225,53.22,29.988,52.278,29.988z"/>
				</g>
			</g>
		</g>
	</g>
</g>
</svg>
