<?xml version="1.0" encoding="utf-8"?>
<!-- Generator: Adobe Illustrator 16.0.0, SVG Export Plug-In . SVG Version: 6.00 Build 0)  -->
<!DOCTYPE svg PUBLIC "-//W3C//DTD SVG 1.1//EN" "http://www.w3.org/Graphics/SVG/1.1/DTD/svg11.dtd">
<svg version="1.1" id="Layer_1" xmlns="http://www.w3.org/2000/svg" xmlns:xlink="http://www.w3.org/1999/xlink" x="0px" y="0px"
	 width="100px" height="100px" viewBox="0 0 100 100" enable-background="new 0 0 100 100" xml:space="preserve">
<g>
	<polygon fill="#225282" points="35.914,30.019 64.412,30.019 70.106,43.344 72.412,43.344 65.807,27.885 34.282,27.885 
		27.412,43.344 29.994,43.344 	"/>
	<path fill="#225282" d="M79.912,43.357h-60v21h4.921v8.016h9v-8.016H65.99v8.016h9v-8.016h4.922V43.357L79.912,43.357z
		 M29.375,58.356c-2.484,0-4.5-2.015-4.5-4.5c0-2.484,2.016-4.5,4.5-4.5c2.486,0,4.5,2.015,4.5,4.5
		C33.875,56.342,31.861,58.356,29.375,58.356z M70.344,49.357c2.485,0,4.5,2.015,4.5,4.5c0,2.485-2.015,4.5-4.5,4.5
		c-2.484,0-4.5-2.015-4.5-4.5C65.844,51.372,67.859,49.357,70.344,49.357z"/>
</g>
</svg>
