<?xml version="1.0" encoding="utf-8"?>
<!-- Generator: Adobe Illustrator 16.0.0, SVG Export Plug-In . SVG Version: 6.00 Build 0)  -->
<!DOCTYPE svg PUBLIC "-//W3C//DTD SVG 1.1//EN" "http://www.w3.org/Graphics/SVG/1.1/DTD/svg11.dtd">
<svg version="1.1" id="Layer_1" xmlns="http://www.w3.org/2000/svg" xmlns:xlink="http://www.w3.org/1999/xlink" x="0px" y="0px"
	 width="100px" height="100px" viewBox="0 0 100 100" enable-background="new 0 0 100 100" xml:space="preserve">
<path fill-rule="evenodd" clip-rule="evenodd" fill="#424143" d="M80.805,46.552c0.061-0.575,0.167-1.13,0.167-1.713
	c0-8.551-6.941-15.485-15.485-15.485c-2.556,0-4.938,0.681-7.062,1.773c-3.251-7.123-10.4-12.098-18.747-12.098
	c-11.402,0-20.646,9.244-20.646,20.646c0,2.269,0.454,4.412,1.131,6.454c-6.696,2.643-10.049,9.134-10.049,16.771
	C10.112,72.003,19,79.442,27,80.713V81h17.841h10.32H73v-0.287c8-1.271,16.885-8.71,16.885-17.813
	C89.885,55.637,86.975,49.414,80.805,46.552z"/>
</svg>
