<?xml version="1.0" encoding="utf-8"?>
<!-- Generator: Adobe Illustrator 20.1.0, SVG Export Plug-In . SVG Version: 6.00 Build 0)  -->
<svg version="1.1" id="Layer_1" xmlns="http://www.w3.org/2000/svg" xmlns:xlink="http://www.w3.org/1999/xlink" x="0px" y="0px"
	 viewBox="0 0 24 24" style="enable-background:new 0 0 24 24;" xml:space="preserve">
<style type="text/css">
	.st0{fill:#FFFFFF;}
</style>
<title>Git_32h Copy 5</title>
<desc>Created with Sketch.</desc>
<g id="Page-1">
	<g id="bluemix-logo-copy" transform="translate(-13.000000, -13.000000)">
		<g id="Git_32h-Copy-5" transform="translate(13.000000, 13.000000)">
			<g id="Layer_1_1_">
				<g id="XMLID_10_">
					<path id="XMLID_8_" class="st0" d="M22.4,5.9c-1.1-1.9-2.6-3.3-4.4-4.4C16.1,0.5,14.2,0,12,0S7.8,0.5,6,1.6
						c-1.9,1-3.4,2.5-4.4,4.4C0.5,7.8,0,9.8,0,11.9c0,2.6,0.8,4.9,2.3,7.1c1.5,2.1,3.5,3.5,5.9,4.4c0.3,0.1,0.5,0,0.6-0.1
						C9,23.1,9.1,23,9.1,22.8V22v-1.4l-0.4,0.1c-0.2,0.1-0.5,0.1-0.9,0.1s-0.7-0.1-1.1-0.1c-0.4-0.1-0.8-0.2-1.1-0.5
						c-0.3-0.2-0.5-0.6-0.7-1l-0.2-0.4c-0.1-0.2-0.3-0.5-0.5-0.8s-0.4-0.5-0.7-0.6l-0.1-0.1c-0.1-0.1-0.1-0.2-0.2-0.2
						C3.3,17,3.3,17,3.2,16.9c0-0.1,0-0.1,0.1-0.1c0.1-0.1,0.2-0.1,0.5-0.1L4,16.7c0.2,0.1,0.5,0.1,0.8,0.4c0.3,0.2,0.5,0.4,0.8,0.8
						c0.2,0.5,0.5,0.8,0.9,1s0.7,0.3,1.1,0.3s0.7,0,0.9-0.1L9,18.9c0.1-0.7,0.4-1.2,0.8-1.6c-0.6-0.1-1.1-0.2-1.6-0.3
						c-0.5-0.1-1-0.3-1.5-0.6c-0.5-0.3-0.9-0.6-1.3-1c-0.3-0.4-0.6-1-0.8-1.6c-0.1-0.7-0.3-1.5-0.3-2.4c0-1.3,0.4-2.3,1.2-3.2
						c-0.3-0.9-0.3-2,0.2-3.2c0.3-0.1,0.8,0,1.3,0.2c0.6,0.2,1,0.4,1.3,0.6c0.3,0.2,0.5,0.3,0.7,0.4c1-0.3,1.9-0.4,3-0.4
						s2,0.2,3,0.4l0.6-0.4c0.4-0.2,0.9-0.4,1.4-0.7c0.5-0.2,1-0.3,1.3-0.2c0.4,1.2,0.5,2.2,0.1,3.2c0.8,0.9,1.2,1.9,1.2,3.2
						c0,0.9-0.1,1.7-0.3,2.3c-0.2,0.7-0.5,1.2-0.8,1.6c-0.4,0.4-0.8,0.8-1.3,1c-0.5,0.3-1,0.5-1.5,0.6c-0.4,0.1-1,0.2-1.6,0.3
						c0.5,0.4,0.8,1.2,0.8,2.2v3.3c0,0.1,0.1,0.4,0.2,0.5c0.2,0.1,0.3,0.1,0.6,0.1c2.4-0.8,4.4-2.2,5.9-4.4s2.3-4.4,2.3-7
						C23.9,9.8,23.4,7.8,22.4,5.9L22.4,5.9z"/>
				</g>
			</g>
		</g>
	</g>
</g>
</svg>
