<?xml version="1.0" encoding="UTF-8" standalone="no"?>
<svg width="42px" height="36px" viewBox="0 0 42 36" version="1.1" xmlns="http://www.w3.org/2000/svg" xmlns:xlink="http://www.w3.org/1999/xlink">
    <!-- Generator: Sketch 40.1 (33804) - http://www.bohemiancoding.com/sketch -->
    <title>HealthHeart</title>
    <desc>Created with Sketch.</desc>
    <defs></defs>
    <g id="Page-1" stroke="none" stroke-width="1" fill="none" fill-rule="evenodd">
        <g id="HealthHeart">
            <path d="M18.3516279,3.42418605 C14.2965735,-0.6308684 7.72203119,-0.6308684 3.66697674,3.42418605 C-0.388077703,7.47924049 -0.388077703,14.0537828 3.66697674,18.1088372 L18.2176744,32.6511628 L21.0725581,35.5060465 L21.0725581,6.14511628 L18.3516279,3.42418605 Z" id="Shape" fill="#FF5050"></path>
            <path d="M38.5116279,3.42418605 C36.5646111,1.47633582 33.9233893,0.381974879 31.1693023,0.381974879 C28.4152154,0.381974879 25.7739936,1.47633582 23.8269767,3.42418605 L21.1060465,6.14511628 L21.1060465,35.5144186 L38.5116279,18.1088372 C40.4594781,16.1618204 41.5538391,13.5205986 41.5538391,10.7665116 C41.5538391,8.01242465 40.4594781,5.37120288 38.5116279,3.42418605 L38.5116279,3.42418605 Z" id="Shape" fill="#E71D32"></path>
            <g id="_Group_" transform="translate(2.511628, 16.744186)">
                <circle id="Oval" fill="#FFFFFF" cx="8.34697674" cy="8.74046512" r="7.93674419"></circle>
                <path d="M8.37209302,17.095814 C3.74831372,17.095814 2.60256932e-15,13.3475002 2.23077371e-15,8.72372093 C1.85897809e-15,4.09994163 3.74831372,0.351627907 8.37209302,0.351627907 C12.9958723,0.351627907 16.744186,4.09994163 16.744186,8.72372093 C16.744186,10.9441381 15.8621288,13.0736127 14.2920568,14.6436847 C12.7219848,16.2137567 10.5925101,17.095814 8.37209302,17.095814 L8.37209302,17.095814 Z M8.37209302,1.18883721 C4.21069165,1.18883721 0.837209302,4.56231956 0.837209302,8.72372093 C0.837209302,12.8851223 4.21069165,16.2586047 8.37209302,16.2586047 C12.5334944,16.2586047 15.9069767,12.8851223 15.9069767,8.72372093 C15.8885396,4.57540355 12.5204514,1.22228461 8.37209302,1.22232558 L8.37209302,1.18883721 Z" id="Shape" fill="#AD1625"></path>
            </g>
            <g id="_Group_2" transform="translate(10.046512, 20.930233)" fill="#AD1625">
                <path d="M0.837209302,8.37209302 C0.606020337,8.37209302 0.418604651,8.18467734 0.418604651,7.95348837 L0.418604651,1.18046512 C0.418604651,0.949276151 0.606020337,0.761860465 0.837209302,0.761860465 C1.06839827,0.761860465 1.25581395,0.949276151 1.25581395,1.18046512 L1.25581395,7.92837209 C1.26274492,8.0436769 1.22172121,8.15672074 1.14245388,8.24074411 C1.06318654,8.32476749 0.952722048,8.37230115 0.837209302,8.37209302 L0.837209302,8.37209302 Z" id="Shape"></path>
            </g>
            <g id="_Group_3" transform="translate(6.697674, 24.279070)" fill="#AD1625">
                <path d="M7.53488372,1.62418605 L0.786976744,1.62418605 C0.555787779,1.62418605 0.368372093,1.43677036 0.368372093,1.2055814 C0.368372093,0.97439243 0.555787779,0.786976744 0.786976744,0.786976744 L7.53488372,0.786976744 C7.76607269,0.786976744 7.95348837,0.97439243 7.95348837,1.2055814 C7.95348837,1.43677036 7.76607269,1.62418605 7.53488372,1.62418605 L7.53488372,1.62418605 Z" id="Shape"></path>
            </g>
        </g>
    </g>
</svg>