<svg id="Layer_1" data-name="Layer 1" xmlns="http://www.w3.org/2000/svg" viewBox="0 0 50 50"><defs><style>.cls-1{fill:#ff5050;}.cls-2{fill:#e71d32;}.cls-3{fill:#fff;}.cls-4{fill:#ad1625;}</style></defs><title>HealthHeart</title><path class="cls-1" d="M21.92,9.09A12.4,12.4,0,0,0,4.38,26.63L21.76,44l3.41,3.41V12.34Z"/><path class="cls-2" d="M46,9.09a12.4,12.4,0,0,0-17.54,0l-3.25,3.25V47.42L46,26.63A12.4,12.4,0,0,0,46,9.09Z"/><g id="_Group_" data-name="&lt;Group&gt;"><circle class="cls-3" cx="12.97" cy="35.44" r="9.48"/><path class="cls-4" d="M13,45.42a10,10,0,1,1,10-10A10,10,0,0,1,13,45.42Zm0-19a9,9,0,1,0,9,9A9,9,0,0,0,13,26.46Z"/></g><g id="_Group_2" data-name="&lt;Group&gt;"><path class="cls-4" d="M13,40a.5.5,0,0,1-.5-.5V31.41a.5.5,0,0,1,1,0v8.06A.5.5,0,0,1,13,40Z"/></g><g id="_Group_3" data-name="&lt;Group&gt;"><path class="cls-4" d="M17,35.94H8.94a.5.5,0,0,1,0-1H17a.5.5,0,0,1,0,1Z"/></g></svg>