<?xml version="1.0" encoding="UTF-8" standalone="no"?>
<svg width="47px" height="36px" viewBox="0 0 47 36" version="1.1" xmlns="http://www.w3.org/2000/svg" xmlns:xlink="http://www.w3.org/1999/xlink">
    <!-- Generator: Sketch 40.1 (33804) - http://www.bohemiancoding.com/sketch -->
    <title>Home</title>
    <desc>Created with Sketch.</desc>
    <defs></defs>
    <g id="Page-1" stroke="none" stroke-width="1" fill="none" fill-rule="evenodd">
        <g id="Home">
            <polygon id="Shape" fill="#41D6C3" points="23.32 2.01 14.82 7.13 6.31 12.25 6.31 35.02 23.37 35.02 23.37 2.04"></polygon>
            <polygon id="Shape" fill="#00B4A0" points="40.28 12.25 31.78 7.13 23.34 2.04 23.34 35.02 40.28 35.02"></polygon>
            <rect id="Rectangle-path" fill="#A7FAE6" x="9.07" y="15.45" width="6.22" height="8.32"></rect>
            <rect id="Rectangle-path" fill="#A7FAE6" x="18.23" y="15.45" width="5.14" height="19.58"></rect>
            <rect id="Rectangle-path" fill="#6EEDD8" x="23.34" y="15.45" width="4.94" height="19.58"></rect>
            <rect id="Rectangle-path" fill="#6EEDD8" x="31.08" y="15.45" width="6.22" height="8.32"></rect>
            <rect id="Rectangle-path" fill="#00B4A0" x="30.45" y="23.59" width="7.51" height="0.67" rx="0.335"></rect>
            <rect id="Rectangle-path" fill="#00B4A0" x="8.42" y="23.59" width="7.51" height="0.67" rx="0.335"></rect>
            <path d="M40.49,34.1 L23.34,34.1 L23.34,35.1 L40.49,35.1 C40.6119996,35.1 40.7290024,35.0515359 40.8152691,34.9652691 C40.9015359,34.8790024 40.95,34.7619996 40.95,34.64 L40.95,34.57 C40.9526903,34.4462771 40.9054164,34.3266888 40.8188563,34.238247 C40.7322963,34.1498052 40.6137521,34.0999708 40.49,34.1 L40.49,34.1 Z" id="Shape" fill="#008571"></path>
            <path d="M5.89,34.1 C5.63594902,34.1 5.43,34.305949 5.43,34.56 L5.43,34.63 C5.43,34.7519996 5.47846415,34.8690024 5.56473088,34.9552691 C5.65099761,35.0415359 5.76800041,35.09 5.89,35.09 L23.34,35.09 L23.34,34.09 L5.89,34.1 Z" id="Shape" fill="#00B4A0"></path>
            <path d="M23.31,0.35 C23.1284241,0.33521062 22.9467336,0.37713919 22.79,0.47 L0.72,13.66 C0.297165986,13.9042986 0.146295643,14.4412195 0.38,14.87 L1.44,16.65 C1.69091621,17.0665397 2.22970678,17.204577 2.65,16.96 L23.31,4.63 L23.37,4.63 L23.37,0.35 L23.31,0.35 Z" id="Shape" fill="#00B4A0"></path>
            <path d="M45.91,13.66 L23.8,0.47 C23.6607807,0.388070282 23.5015004,0.346518885 23.34,0.35 L23.34,4.66 L43.94,16.95 C44.3602932,17.194577 44.8990838,17.0565397 45.15,16.64 L46.21,14.86 C46.4497207,14.4445143 46.317041,13.9137953 45.91,13.66 L45.91,13.66 Z" id="Shape" fill="#008571"></path>
            <circle id="Oval" fill="#A7FAE6" cx="26.53" cy="25.61" r="0.54"></circle>
        </g>
    </g>
</svg>