<svg id="Layer_1" data-name="Layer 1" xmlns="http://www.w3.org/2000/svg" viewBox="0 0 50 50"><defs><style>.cls-1{fill:#41d6c3;}.cls-2{fill:#00b4a0;}.cls-3{fill:#a7fae6;}.cls-4{fill:#6eedd8;}.cls-5{fill:#008571;}</style></defs><title>Home</title><polygon class="cls-1" points="25.32 14.01 16.82 19.13 8.31 24.25 8.31 47.02 25.37 47.02 25.37 14.04 25.32 14.01"/><polygon class="cls-2" points="42.28 24.25 33.78 19.13 25.34 14.04 25.34 47.02 42.28 47.02 42.28 24.25"/><rect class="cls-3" x="11.07" y="27.45" width="6.22" height="8.32"/><rect class="cls-3" x="20.23" y="27.45" width="5.14" height="19.58"/><rect class="cls-4" x="25.34" y="27.45" width="4.94" height="19.58"/><rect class="cls-4" x="33.08" y="27.45" width="6.22" height="8.32"/><rect class="cls-2" x="32.45" y="35.59" width="7.51" height="0.67" rx="0.34" ry="0.34"/><rect class="cls-2" x="10.42" y="35.59" width="7.51" height="0.67" rx="0.34" ry="0.34"/><path class="cls-5" d="M42.49,46.1H25.34v1H42.49a.46.46,0,0,0,.46-.46v-.07A.46.46,0,0,0,42.49,46.1Z"/><path class="cls-2" d="M7.89,46.1a.46.46,0,0,0-.46.46v.07a.46.46,0,0,0,.46.46H25.34v-1Z"/><path class="cls-2" d="M25.31,12.35a.88.88,0,0,0-.52.12L2.72,25.66a.9.9,0,0,0-.34,1.21l1.06,1.78a.89.89,0,0,0,1.21.31L25.31,16.63l.06,0V12.35Z"/><path class="cls-5" d="M47.91,25.66,25.8,12.47a.87.87,0,0,0-.46-.12v4.31L45.94,28.95a.89.89,0,0,0,1.21-.31l1.06-1.78A.89.89,0,0,0,47.91,25.66Z"/><circle class="cls-3" cx="28.53" cy="37.61" r="0.54"/></svg>