<?xml version="1.0" encoding="utf-8"?>
<!-- Generator: Adobe Illustrator 16.0.0, SVG Export Plug-In . SVG Version: 6.00 Build 0)  -->
<!DOCTYPE svg PUBLIC "-//W3C//DTD SVG 1.1//EN" "http://www.w3.org/Graphics/SVG/1.1/DTD/svg11.dtd">
<svg version="1.1" id="Layer_1" xmlns="http://www.w3.org/2000/svg" xmlns:xlink="http://www.w3.org/1999/xlink" x="0px" y="0px"
	 width="300px" height="300px" viewBox="0 0 300 300" enable-background="new 0 0 300 300" xml:space="preserve">
<g>
	<polygon fill="#2EA8E0" points="137,198.409 117.127,178.539 104.873,190.794 137,222.924 195.128,164.794 182.872,152.539 	"/>
	<path fill="#2EA8E0" d="M219.333,119.275V89.333C219.333,51.04,188.293,20,150,20c-38.293,0-69.333,31.04-69.333,69.333v29.948
		c-16.106,17.073-26,40.071-26,65.385C54.667,237.306,97.361,280,150,280c52.656,0,95.333-42.694,95.333-95.333
		C245.333,159.348,235.441,136.348,219.333,119.275z M98,89.333c0-28.672,23.328-52,52-52c28.672,0,52,23.328,52,52v15.448
		c-14.957-9.756-32.809-15.448-52-15.448c-19.189,0-37.041,5.694-52,15.454V89.333z M150,271.333
		c-47.861,0-86.667-38.805-86.667-86.666C63.333,136.805,102.139,98,150,98s86.667,38.805,86.667,86.667
		C236.667,232.528,197.861,271.333,150,271.333z"/>
</g>
</svg>
