<?xml version="1.0" encoding="utf-8"?>
<!-- Generator: Adobe Illustrator 16.0.0, SVG Export Plug-In . SVG Version: 6.00 Build 0)  -->
<!DOCTYPE svg PUBLIC "-//W3C//DTD SVG 1.1//EN" "http://www.w3.org/Graphics/SVG/1.1/DTD/svg11.dtd">
<svg version="1.1" id="Layer_1" xmlns="http://www.w3.org/2000/svg" xmlns:xlink="http://www.w3.org/1999/xlink" x="0px" y="0px"
	 width="100px" height="100px" viewBox="0 0 100 100" enable-background="new 0 0 100 100" xml:space="preserve">
<g>
	<circle fill="#424143" cx="34.492" cy="34.293" r="4.666"/>
	<circle fill="#424143" cx="66.901" cy="66.702" r="4.667"/>
	
		<rect x="45.876" y="27.141" transform="matrix(0.7072 -0.7071 0.7071 0.7072 -20.7748 50.4591)" fill="#424143" width="9.305" height="46.338"/>
	<circle fill="#424143" cx="28.403" cy="60.594" r="4.666"/>
	<path fill="#424143" d="M57.512,31.485c-1.822-1.822-1.82-4.777,0.002-6.6c1.822-1.822,4.775-1.822,6.598,0
		c1.824,1.823,1.822,4.777,0.002,6.599C62.289,33.307,59.334,33.308,57.512,31.485z"/>
	
		<rect x="39.768" y="21.388" transform="matrix(-0.7071 -0.7071 0.7071 -0.7071 44.3253 107.4744)" fill="#424143" width="9.305" height="46.339"/>
	<circle fill="#424143" cx="57.966" cy="71.924" r="2.04"/>
	<path fill="#424143" d="M70.699,59.191c-0.799-0.797-0.797-2.089,0.002-2.887c0.797-0.797,2.088-0.799,2.885-0.001
		c0.797,0.797,0.797,2.09,0,2.887C72.789,59.988,71.496,59.988,70.699,59.191z"/>
	
		<rect x="62.938" y="54.774" transform="matrix(-0.7071 -0.7071 0.7071 -0.7071 65.0168 156.7512)" fill="#424143" width="4.069" height="20.271"/>
	<path fill="#424143" d="M31.752,31.553c1.562-1.562,4.095-1.562,5.656,0c1.562,1.562-4.095,7.219-5.656,5.657
		C30.19,35.648,30.19,33.115,31.752,31.553z"/>
</g>
</svg>
