<?xml version="1.0" encoding="UTF-8" standalone="no"?>
<svg width="41px" height="36px" viewBox="0 0 41 36" version="1.1" xmlns="http://www.w3.org/2000/svg" xmlns:xlink="http://www.w3.org/1999/xlink">
    <!-- Generator: Sketch 40.1 (33804) - http://www.bohemiancoding.com/sketch -->
    <title>travel</title>
    <desc>Created with Sketch.</desc>
    <defs></defs>
    <g id="Page-1" stroke="none" stroke-width="1" fill="none" fill-rule="evenodd">
        <g id="travel">
            <g id="Layer_1">
                <path d="M37.3697561,7.1297561 L28.8790244,7.1297561 L28.8790244,5.37365854 C28.8790244,2.75017127 26.7522678,0.623414634 24.1287805,0.623414634 L20.0546341,0.623414634 L20.0546341,3.21365854 L24.1287805,3.21365854 C25.3217155,3.21365854 26.2887805,4.18072348 26.2887805,5.37365854 L26.2887805,7.1297561 L20.0546341,7.1297561 L20.0546341,34.9463415 L37.3697561,34.9463415 C38.9603362,34.9463415 40.2497561,33.6569215 40.2497561,32.0663415 L40.2497561,10.0097561 C40.2497561,8.41917602 38.9603362,7.1297561 37.3697561,7.1297561 L37.3697561,7.1297561 Z" id="Shape" fill="#FF5003"></path>
                <path d="M14.1980488,7.1297561 L14.1980488,5.37365854 C14.1980488,4.18072348 15.1651137,3.21365854 16.3580488,3.21365854 L20.3356098,3.21365854 L20.3356098,0.605853659 L16.3580488,0.605853659 C13.7345615,0.605853659 11.6078049,2.7326103 11.6078049,5.35609756 L11.6078049,7.11219512 L3.0204878,7.11219512 C2.2551348,7.11451428 1.52218152,7.42138014 0.983469531,7.96503444 C0.444757542,8.50868874 0.144597971,9.24441383 0.149268293,10.0097561 L0.149268293,32.075122 C0.15408942,33.6588514 1.43675833,34.9415203 3.0204878,34.9463415 L20.3356098,34.9463415 L20.3356098,7.1297561 L14.1980488,7.1297561 Z" id="Shape" fill="#FF7832"></path>
                <rect id="Rectangle-path" fill="#FF5003" x="5.13658537" y="7.1297561" width="3.83707317" height="27.8165854"></rect>
                <rect id="Rectangle-path" fill="#D74108" x="5.13658537" y="6.48878049" width="3.83707317" height="0.649756098"></rect>
                <rect id="Rectangle-path" fill="#D74108" x="5.13658537" y="34.9463415" width="3.83707317" height="0.649756098"></rect>
                <rect id="Rectangle-path" fill="#A53725" x="31.2760976" y="6.48878049" width="3.83707317" height="0.649756098"></rect>
                <rect id="Rectangle-path" fill="#A53725" x="31.1268293" y="34.9463415" width="3.83707317" height="0.649756098"></rect>
                <rect id="Rectangle-path" fill="#D74108" x="31.2234146" y="7.1297561" width="3.83707317" height="27.8165854"></rect>
            </g>
        </g>
    </g>
</svg>