<svg id="Layer_1" data-name="Layer 1" xmlns="http://www.w3.org/2000/svg" viewBox="0 0 50 50"><defs><style>.cls-1{fill:#ff5003;}.cls-2{fill:#ff7832;}.cls-3{fill:#d74108;}.cls-4{fill:#a53725;}</style></defs><title>Untitled-4</title><path class="cls-1" d="M44.56,15.12H34.89v-2a5.41,5.41,0,0,0-5.41-5.41H24.84v2.95h4.64a2.46,2.46,0,0,1,2.46,2.46v2h-7.1V46.8H44.56a3.28,3.28,0,0,0,3.28-3.28V18.4A3.28,3.28,0,0,0,44.56,15.12Z"/><path class="cls-2" d="M18.17,15.12v-2a2.46,2.46,0,0,1,2.46-2.46h4.53V7.69H20.63a5.41,5.41,0,0,0-5.41,5.41v2H5.44A3.28,3.28,0,0,0,2.17,18.4V43.53A3.28,3.28,0,0,0,5.44,46.8H25.16V15.12Z"/><rect class="cls-1" x="7.85" y="15.12" width="4.37" height="31.68"/><rect class="cls-3" x="7.85" y="14.39" width="4.37" height="0.74"/><rect class="cls-3" x="7.85" y="46.8" width="4.37" height="0.74"/><rect class="cls-4" x="37.62" y="14.39" width="4.37" height="0.74"/><rect class="cls-4" x="37.45" y="46.8" width="4.37" height="0.74"/><rect class="cls-3" x="37.56" y="15.12" width="4.37" height="31.68"/></svg>