<?xml version="1.0" encoding="utf-8"?>
<!-- Generator: Adobe Illustrator 16.0.0, SVG Export Plug-In . SVG Version: 6.00 Build 0)  -->
<!DOCTYPE svg PUBLIC "-//W3C//DTD SVG 1.1//EN" "http://www.w3.org/Graphics/SVG/1.1/DTD/svg11.dtd">
<svg version="1.1" id="Layer_1" xmlns="http://www.w3.org/2000/svg" xmlns:xlink="http://www.w3.org/1999/xlink" x="0px" y="0px"
	 width="300px" height="300px" viewBox="0 0 300 300" enable-background="new 0 0 300 300" xml:space="preserve">
<g>
	<path fill="#2EA8E0" d="M150,193.333c47.87,0,86.667-38.797,86.667-86.667S197.87,20,150,20c-47.87,0-86.667,38.797-86.667,86.667
		S102.13,193.333,150,193.333z M150,28.667c43.01,0,78,34.991,78,78c0,43.01-34.99,78-78,78s-78-34.991-78-78
		C72,63.657,106.99,28.667,150,28.667z"/>
	<path fill="#2EA8E0" d="M219.333,210.667H80.667C61.522,210.667,46,226.188,46,245.333V280h208v-34.667
		C254,226.188,238.478,210.667,219.333,210.667z"/>
</g>
</svg>
