<?xml version="1.0" encoding="utf-8"?>
<!-- Generator: Adobe Illustrator 16.0.0, SVG Export Plug-In . SVG Version: 6.00 Build 0)  -->
<!DOCTYPE svg PUBLIC "-//W3C//DTD SVG 1.1//EN" "http://www.w3.org/Graphics/SVG/1.1/DTD/svg11.dtd">
<svg version="1.1" id="Layer_1" xmlns="http://www.w3.org/2000/svg" xmlns:xlink="http://www.w3.org/1999/xlink" x="0px" y="0px"
	 width="100px" height="100px" viewBox="0 0 100 100" enable-background="new 0 0 100 100" xml:space="preserve">
<g>
	<polygon fill="#424143" points="63.725,33.05 49.61,47.163 42.553,40.106 38.782,43.877 45.839,50.935 42.391,54.382 
		44.276,56.268 47.725,52.819 52.115,57.211 55.887,53.439 51.495,49.049 65.609,34.935 	"/>
	<path fill="#424143" d="M80.543,47.325c-0.792-9.599-5.816-17.994-13.209-23.316V9.991H30v14.018
		c-8.072,5.81-13.333,15.28-13.333,25.983c0,10.702,5.262,20.173,13.333,25.983v14.016h37.333V75.976
		c7.393-5.322,12.417-13.719,13.209-23.317h2.791v-5.333H80.543z M48.667,79.325c-16.174,0-29.333-13.158-29.333-29.333
		s13.159-29.334,29.333-29.334C64.842,20.658,78,33.817,78,49.992S64.842,79.325,48.667,79.325z"/>
</g>
</svg>
