<?xml version="1.0" encoding="utf-8"?>
<!-- Generator: Adobe Illustrator 16.0.0, SVG Export Plug-In . SVG Version: 6.00 Build 0)  -->
<!DOCTYPE svg PUBLIC "-//W3C//DTD SVG 1.1//EN" "http://www.w3.org/Graphics/SVG/1.1/DTD/svg11.dtd">
<svg version="1.1" id="Layer_1" xmlns="http://www.w3.org/2000/svg" xmlns:xlink="http://www.w3.org/1999/xlink" x="0px" y="0px"
	 width="128px" height="128px" viewBox="0 0 128 128" enable-background="new 0 0 128 128" xml:space="preserve">
<rect x="45.332" y="96" fill="#225282" width="26.667" height="8"/>
<g>
	<path fill="#225282" d="M38.866,71.799c5.466,5.467,12.633,8.199,19.799,8.199c6.752,0,13.504-2.428,18.834-7.279l0.023,0.023
		l1.885-1.886l-0.023-0.023c10.002-10.988,9.697-28.016-0.918-38.633C72.998,26.733,65.83,24,58.664,24
		c-6.751,0-13.501,2.428-18.833,7.28l-0.023-0.023l-1.885,1.885l0.024,0.023C27.945,44.153,28.25,61.183,38.866,71.799
		 M58.664,26.667c6.768,0,13.131,2.634,17.915,7.418c9.562,9.563,9.866,24.928,0.918,34.86L41.719,33.167
		C46.378,28.966,52.344,26.667,58.664,26.667 M75.611,70.83c-4.658,4.202-10.625,6.501-16.946,6.501
		c-6.768,0-13.13-2.634-17.914-7.418c-9.562-9.561-9.866-24.926-0.917-34.86L75.611,70.83z"/>
	<path fill="#225282" d="M86.007,24.657l-3.771,3.771c6.296,6.295,9.764,14.666,9.764,23.571c0,8.904-3.468,17.275-9.764,23.571
		c-6.293,6.296-14.664,9.763-23.57,9.763s-17.277-3.467-23.57-9.763l-3.771,3.771c7.3,7.303,17.011,11.325,27.341,11.325
		c10.332,0,20.041-4.022,27.342-11.325C93.311,72.039,97.333,62.329,97.333,52C97.333,41.669,93.311,31.959,86.007,24.657"/>
</g>
</svg>
