<?xml version="1.0" encoding="utf-8"?>
<!-- Generator: Adobe Illustrator 16.0.0, SVG Export Plug-In . SVG Version: 6.00 Build 0)  -->
<!DOCTYPE svg PUBLIC "-//W3C//DTD SVG 1.1//EN" "http://www.w3.org/Graphics/SVG/1.1/DTD/svg11.dtd">
<svg version="1.1" id="Layer_1" xmlns="http://www.w3.org/2000/svg" xmlns:xlink="http://www.w3.org/1999/xlink" x="0px" y="0px"
	 width="107.268px" height="279.706px" viewBox="95 10.294 107.268 279.706" enable-background="new 95 10.294 107.268 279.706"
	 xml:space="preserve">
<g>
	<path fill="#008A54" d="M115.144,104.056"/>
	<path fill="#225282" d="M178.925,195.372l-2.269-11.608c-2.949,3.522-6.166,6.723-12.008,6.723c-4.063,0-6.856-1.549-9.174-3.678
		c2.316,2.128,5.109,3.676,9.172,3.676c5.842,0,9.059-3.199,12.008-6.725l-0.148-0.767l2.209-12.279l2.209-12.282v-0.596v-0.595
		v-12.092v-12.092c0-0.876,0.034-1.662-0.287-2.371c-0.32-0.709-0.681-1.342-1.256-1.917c-0.572-0.573-1.205-0.62-1.964-0.891
		c-0.759-0.272-1.54-0.032-2.416-0.032h-12.687h-12.688H136.94h-12.687c-0.875,0-1.709-0.24-2.468,0.032
		c-0.759,0.271-1.443,0.501-2.017,1.076c-0.575,0.574-1.25,1.116-1.57,1.826c-0.32,0.709-0.709,1.402-0.709,2.278v12.092v12.092
		v0.595v0.595l2.629,12.191l2.523,12.189l-0.735,3.901c5.036-4.688,7.853-12.086,16.734-12.086c2.439,0,4.42,0.558,6.116,1.464
		c-1.695-0.905-3.676-1.463-6.114-1.463c-8.882,0-11.698,7.396-16.734,12.086l-1.63,8.657l-2.367,12.56h31.717h31.716
		L178.925,195.372z"/>
	<g>
		<circle fill="#225282" cx="194.205" cy="143.702" r="7.929"/>
		<circle fill="#225282" cx="103.813" cy="143.702" r="7.929"/>
		<g>
			<g>
				<path fill="#225282" d="M197.195,207h-5.285c-2.922,0-5.91,3.288-5.91,7.667v7.931c0,4.379,2.988,8.402,5.91,8.402h5.285
					c2.919,0,3.805-4.023,3.805-8.402v-7.931C201,210.288,200.113,207,197.195,207z"/>
				<g>
					<path fill="#225282" d="M165.857,274.143C157.102,274.143,150,281,150,290h31.717C181.717,281,174.617,274.143,165.857,274.143
						z"/>
					<path fill="#225282" d="M163.365,214c-2.922,0-6.365,2.631-6.365,7.011v39.646c0,4.379,3.443,8.344,6.365,8.344h5.285
						c2.918,0,4.35-3.965,4.35-8.344v-39.646c0-4.382-1.432-7.013-4.35-7.013L163.365,214L163.365,214z"/>
					<path fill="#225282" d="M132.556,274.143c-8.758,0-15.858,6.857-15.858,15.857h31.716
						C148.414,281,141.314,274.143,132.556,274.143z"/>
					<path fill="#225282" d="M135.349,269c2.919,0,4.651-3.965,4.651-8.344V221.01c0-4.38-1.732-7.011-4.651-7.011h-5.286
						c-2.921,0-6.062,2.631-6.062,7.011v39.646c0,4.379,3.142,8.344,6.062,8.344H135.349z"/>
				</g>
				<path fill="#225282" d="M106.804,207h-5.286c-2.92,0-6.518,3.288-6.518,7.667v7.931c0,4.379,3.597,8.402,6.518,8.402h5.286
					c2.919,0,4.196-4.023,4.196-8.402v-7.931C111,210.288,109.723,207,106.804,207z"/>
				<path fill="#225282" d="M196.15,159.543h-3.658c-3.37,0-6.081,3.825-6.081,9.201v6.273v13.905
					c0,5.375,2.711,10.265,6.081,10.265h3.658c3.369,0,6.117-4.89,6.117-10.265v-7.042v-13.139
					C202.27,163.368,199.52,159.543,196.15,159.543z"/>
				<path fill="#225282" d="M105.758,159.543H102.1c-3.37,0-6.081,3.825-6.081,9.201v6.273v13.905
					c0,5.375,2.711,10.265,6.081,10.265h3.658c3.37,0,6.119-4.89,6.119-10.265v-7.042v-13.139
					C111.877,163.368,109.128,159.543,105.758,159.543z"/>
			</g>
			<g>
				<path fill="#225282" d="M187.602,73.35v-0.017l0.123-0.029c-0.336-0.243-0.537-0.428-0.939-0.558l-7.984-3.99
					c-3.469-13.048-12.219-23.082-23.078-26.155l-0.629-3.762h6.739c1.312,0,2.379-1.065,2.379-2.379
					c0-1.313-1.063-2.379-2.379-2.379H154.3l-0.927-5.55h0.529c1.312,0,2.379-1.065,2.379-2.378s-1.065-2.379-2.379-2.379h-1.322
					l-0.264-1.586c0-4.379,0.414-11.894-3.964-11.894c-4.379,0-3.964,7.514-3.964,11.894l-0.265,1.586h-1.321
					c-1.315,0-2.379,1.065-2.379,2.379c0,1.313,1.064,2.378,2.379,2.378h0.528l-0.924,5.55h-7.533c-1.315,0-2.379,1.066-2.379,2.379
					s1.064,2.379,2.379,2.379h6.74l-0.662,3.968c-10.535,3.302-18.987,13.185-22.379,25.949l-8.027,3.99
					c-0.404,0.129-0.871,0.314-1.207,0.558l-0.235,0.029v0.017c-0.793,0.724-1.586,1.861-1.586,3.154v4.163v0.593v4.163
					c0,1.293,0.793,2.431,1.586,3.154v0.018l0.235,0.028c0.335,0.244,0.803,0.428,1.207,0.557l8.027,3.991
					c4.191,15.765,16.099,27.141,30.119,27.141s25.918-11.375,30.109-27.141l7.984-3.991c0.403-0.129,0.604-0.313,0.94-0.557
					l-0.123-0.028v-0.018c0.793-0.723,1.586-1.861,1.586-3.154V81.26v-0.593v-4.163C189.188,75.211,188.395,74.074,187.602,73.35z
					 M171.742,80.667v0.593v4.79c-1.586,13.85-11.727,24.349-23.391,24.349c-11.667,0-21.012-10.499-23.391-24.349v-4.79v-0.593
					v-4.79c2.378-13.851,11.724-24.349,23.391-24.349c11.665,0,21.805,10.499,23.391,24.349V80.667z"/>
				<g>
					<path fill="#225282" d="M145.973,95.73c0,0.876-0.71,1.586-1.585,1.586l0,0c-0.876,0-1.586-0.71-1.586-1.586v-3.171
						c0-0.876,0.71-1.586,1.586-1.586l0,0c0.875,0,1.585,0.71,1.585,1.586V95.73z"/>
					<path fill="#225282" d="M149.938,95.73c0,0.876-0.71,1.586-1.586,1.586l0,0c-0.876,0-1.586-0.71-1.586-1.586v-3.171
						c0-0.876,0.71-1.586,1.586-1.586l0,0c0.875,0,1.586,0.71,1.586,1.586V95.73z"/>
					<path fill="#225282" d="M153.902,95.73c0,0.876-0.711,1.586-1.586,1.586l0,0c-0.877,0-1.586-0.71-1.586-1.586v-3.171
						c0-0.876,0.709-1.586,1.586-1.586l0,0c0.875,0,1.586,0.71,1.586,1.586V95.73z"/>
				</g>
				<g>
					<path fill="#225282" d="M138.753,65.997c-4.379,0-7.929,3.549-7.929,7.929c0,4.379,3.55,7.929,7.929,7.929
						c4.378,0,7.929-3.549,7.929-7.929C146.682,69.546,143.131,65.997,138.753,65.997z M138.753,79.873
						c-3.285,0-5.947-2.662-5.947-5.947c0-3.285,2.662-5.947,5.947-5.947v5.947h5.947C144.7,77.21,142.038,79.873,138.753,79.873z"
						/>
					<path fill="#225282" d="M157.949,65.997c-4.381,0-7.929,3.549-7.929,7.929c0,4.379,3.548,7.929,7.929,7.929
						c4.378,0,7.929-3.549,7.929-7.929C165.878,69.546,162.327,65.997,157.949,65.997z M157.949,79.873
						c-3.285,0-5.947-2.662-5.947-5.947c0-3.285,2.662-5.947,5.947-5.947v5.947h5.945C163.896,77.21,161.234,79.873,157.949,79.873z
						"/>
				</g>
			</g>
		</g>
	</g>
</g>
</svg>
