<?xml version="1.0" encoding="utf-8"?>
<!-- Generator: Adobe Illustrator 16.0.0, SVG Export Plug-In . SVG Version: 6.00 Build 0)  -->
<!DOCTYPE svg PUBLIC "-//W3C//DTD SVG 1.1//EN" "http://www.w3.org/Graphics/SVG/1.1/DTD/svg11.dtd">
<svg version="1.1" id="Layer_1" xmlns="http://www.w3.org/2000/svg" xmlns:xlink="http://www.w3.org/1999/xlink" x="0px" y="0px"
	 width="100px" height="100px" viewBox="0 0 100 100" enable-background="new 0 0 100 100" xml:space="preserve">
<path fill="#225282" d="M51.785,53.765c-0.69,0.606-1.446,1.172-2.27,1.697c-0.824,0.529-1.614,1.071-2.374,1.63
	c-1.579,1.079-2.827,2.344-3.741,3.8c-0.914,1.457-1.382,3.161-1.401,5.109h15.966V62.57H46.576c0.157-0.515,0.444-1,0.872-1.46
	c0.417-0.461,0.916-0.901,1.48-1.329c0.573-0.426,1.187-0.851,1.855-1.276c0.67-0.426,1.338-0.874,2.008-1.343
	c0.666-0.469,1.314-0.978,1.938-1.517c0.619-0.539,1.177-1.125,1.665-1.762c0.492-0.641,0.883-1.338,1.172-2.101
	C57.855,51.021,58,50.168,58,49.229c0-0.761-0.123-1.563-0.365-2.403c-0.246-0.841-0.666-1.616-1.257-2.339
	c-0.588-0.714-1.362-1.311-2.32-1.78c-0.954-0.47-2.149-0.705-3.574-0.705c-1.312,0-2.468,0.231-3.457,0.689
	c-0.992,0.459-1.83,1.091-2.524,1.897c-0.689,0.808-1.207,1.765-1.55,2.875c-0.346,1.107-0.52,2.316-0.52,3.612h3.807
	c0.025-0.826,0.107-1.6,0.25-2.321c0.148-0.715,0.369-1.337,0.67-1.863c0.299-0.528,0.7-0.943,1.203-1.244
	c0.5-0.299,1.127-0.456,1.887-0.456c0.824,0,1.49,0.142,2.003,0.421c0.513,0.281,0.914,0.63,1.203,1.043
	c0.289,0.416,0.483,0.861,0.586,1.346c0.098,0.482,0.148,0.937,0.148,1.358c-0.021,0.917-0.254,1.732-0.703,2.438
	C53.045,52.503,52.479,53.159,51.785,53.765"/>
<path fill="#225282" d="M20,26v8v40h60V34v-8H20z M78,72H22V36h56L78,72L78,72z"/>
</svg>
