<?xml version="1.0" encoding="utf-8"?>
<!-- Generator: Adobe Illustrator 16.0.0, SVG Export Plug-In . SVG Version: 6.00 Build 0)  -->
<!DOCTYPE svg PUBLIC "-//W3C//DTD SVG 1.1//EN" "http://www.w3.org/Graphics/SVG/1.1/DTD/svg11.dtd">
<svg version="1.1" id="Layer_1" xmlns="http://www.w3.org/2000/svg" xmlns:xlink="http://www.w3.org/1999/xlink" x="0px" y="0px"
	 width="100px" height="100px" viewBox="0 0 100 100" enable-background="new 0 0 100 100" xml:space="preserve">
<g>
	<polygon fill="#225282" points="33.581,26.667 66.829,26.667 73.471,42.213 76.162,42.213 68.456,24.177 31.677,24.177 
		23.662,42.213 26.674,42.213 	"/>
	<path fill="#225282" d="M84.912,42.229h-70v24.5h5.741v9.352h10.5v-9.352H68.67v9.352h10.5v-9.352h5.742V42.229L84.912,42.229z
		 M25.952,59.727c-2.898,0-5.25-2.351-5.25-5.25c0-2.897,2.352-5.25,5.25-5.25c2.9,0,5.25,2.351,5.25,5.25
		C31.202,57.377,28.853,59.727,25.952,59.727z M73.749,49.229c2.899,0,5.25,2.351,5.25,5.25c0,2.898-2.351,5.25-5.25,5.25
		c-2.898,0-5.25-2.352-5.25-5.25C68.499,51.579,70.851,49.229,73.749,49.229z"/>
</g>
</svg>
