<?xml version="1.0" encoding="utf-8"?>
<!-- Generator: Adobe Illustrator 16.0.0, SVG Export Plug-In . SVG Version: 6.00 Build 0)  -->
<!DOCTYPE svg PUBLIC "-//W3C//DTD SVG 1.1//EN" "http://www.w3.org/Graphics/SVG/1.1/DTD/svg11.dtd">
<svg version="1.1" id="Layer_1" xmlns="http://www.w3.org/2000/svg" xmlns:xlink="http://www.w3.org/1999/xlink" x="0px" y="0px"
	 width="100px" height="100px" viewBox="0 0 100 100" enable-background="new 0 0 100 100" xml:space="preserve">
<g>
	<polygon fill="#547190" points="31.248,23.316 69.246,23.316 76.838,41.083 79.912,41.083 71.105,20.47 29.072,20.47 
		19.912,41.083 23.354,41.083 	"/>
	<path fill="#547190" d="M89.912,41.1h-80v28h6.562v10.688h12V69.1H71.35v10.688h12V69.1h6.562V41.1z M22.529,61.1
		c-3.312,0-6-2.687-6-6c0-3.312,2.688-6,6-6c3.314,0,6,2.687,6,6C28.529,58.413,25.844,61.1,22.529,61.1z M77.154,49.1
		c3.312,0,6,2.687,6,6c0,3.313-2.688,6-6,6s-6-2.687-6-6C71.154,51.787,73.842,49.1,77.154,49.1z"/>
</g>
</svg>
