<svg id="Layer_1" data-name="Layer 1" xmlns="http://www.w3.org/2000/svg" viewBox="0 0 30.32 19.66"><defs><style>.cls-1{fill:#fff;}</style></defs><title>CloudInsuranceCo_Icon</title><path class="cls-1" d="M26.08,13a8,8,0,0,0-14.82-3A8,8,0,1,0,9,25.83h6.49l.06-4.37a.56.56,0,0,1,.58-.57.58.58,0,0,1,.57.58l-.06,4.35h8.15A6.48,6.48,0,0,0,26.08,13Zm.06,9.06a.38.38,0,0,1-.44-.2,3.28,3.28,0,0,0-5.95.13.38.38,0,0,1-.7,0,3.29,3.29,0,0,0-6,0,.38.38,0,0,1-.7,0,3.28,3.28,0,0,0-5.95-.13.38.38,0,0,1-.73-.19,10.42,10.42,0,0,1,9.92-9.77v-.37a.58.58,0,0,1,1.15,0v.36a10.42,10.42,0,0,1,9.7,9.76A.38.38,0,0,1,26.14,22.05Z" transform="translate(-0.98 -6.17)"/></svg>