<?xml version="1.0" encoding="utf-8"?>
<!-- Generator: Adobe Illustrator 16.0.0, SVG Export Plug-In . SVG Version: 6.00 Build 0)  -->
<!DOCTYPE svg PUBLIC "-//W3C//DTD SVG 1.1//EN" "http://www.w3.org/Graphics/SVG/1.1/DTD/svg11.dtd">
<svg version="1.1" id="Layer_1" xmlns="http://www.w3.org/2000/svg" xmlns:xlink="http://www.w3.org/1999/xlink" x="0px" y="0px"
	 width="100px" height="100px" viewBox="0 0 100 100" enable-background="new 0 0 100 100" xml:space="preserve">
<g>
	<path fill="#225282" d="M48.124,72.656v-5.574c-3.201-0.055-6.513-1.049-8.444-2.428l1.324-3.699
		c1.987,1.324,4.857,2.373,7.947,2.373c3.919,0,6.567-2.262,6.567-5.408c0-3.035-2.152-4.912-6.236-6.567
		c-5.629-2.208-9.106-4.747-9.106-9.548c0-4.581,3.257-8.058,8.334-8.886v-5.574h3.422v5.354c3.312,0.11,5.574,0.994,7.175,1.932
		l-1.38,3.643c-1.159-0.662-3.422-1.876-6.954-1.876c-4.249,0-5.85,2.539-5.85,4.747c0,2.87,2.042,4.305,6.843,6.292
		c5.686,2.318,8.555,5.188,8.555,10.1c0,4.361-3.035,8.445-8.72,9.383v5.74H48.124z"/>
</g>
</svg>
