<?xml version="1.0" encoding="utf-8"?>
<!-- Generator: Adobe Illustrator 16.0.0, SVG Export Plug-In . SVG Version: 6.00 Build 0)  -->
<!DOCTYPE svg PUBLIC "-//W3C//DTD SVG 1.1//EN" "http://www.w3.org/Graphics/SVG/1.1/DTD/svg11.dtd">
<svg version="1.1" id="Layer_1" xmlns="http://www.w3.org/2000/svg" xmlns:xlink="http://www.w3.org/1999/xlink" x="0px" y="0px"
	 width="120px" height="50px" viewBox="0 0 120 50" enable-background="new 0 0 120 50" xml:space="preserve">
<g>
	<path fill="#225282" d="M120,22h-4.339C113.754,10.65,103.88,2,92,2c-5.424,0-10.43,1.805-14.451,4.844l-0.213-0.18
		C72.545,2.367,66.389,0,60,0c-6.389,0-12.545,2.367-17.293,6.627L42.45,6.844C38.429,3.805,33.424,2,28,2
		C16.12,2,6.246,10.65,4.339,22H0v8h4.339C6.246,41.35,16.12,50,28,50c13.242,0,24-10.746,24-24c0-6.372-2.491-12.16-6.545-16.457
		C49.493,5.971,54.65,4,60,4c5.332,0,10.471,1.959,14.543,5.545C70.49,13.842,68,19.629,68,26c0,13.254,10.758,24,24,24
		c11.88,0,21.754-8.65,23.661-20H120V22z M28,42c-8.822,0-16-7.178-16-16c0-8.822,7.178-16,16-16s16,7.178,16,16
		C44,34.822,36.822,42,28,42 M92,42c-8.822,0-16-7.178-16-16c0-8.822,7.178-16,16-16s16,7.178,16,16C108,34.822,100.822,42,92,42"/>
</g>
</svg>
