<?xml version="1.0" encoding="utf-8"?>
<!-- Generator: Adobe Illustrator 16.0.0, SVG Export Plug-In . SVG Version: 6.00 Build 0)  -->
<!DOCTYPE svg PUBLIC "-//W3C//DTD SVG 1.1//EN" "http://www.w3.org/Graphics/SVG/1.1/DTD/svg11.dtd">
<svg version="1.1" id="Layer_1" xmlns="http://www.w3.org/2000/svg" xmlns:xlink="http://www.w3.org/1999/xlink" x="0px" y="0px"
	 width="100px" height="100px" viewBox="0 0 100 100" enable-background="new 0 0 100 100" xml:space="preserve">
<g>
	<path fill="#225282" d="M50,15c-19.331,0-35,15.67-35,35c0,19.328,15.669,35,35,35s35-15.672,35-35C85,30.67,69.331,15,50,15
		 M50,82.5c-17.92,0-32.5-14.58-32.5-32.5c0-17.92,14.58-32.5,32.5-32.5c17.92,0,32.5,14.58,32.5,32.5
		C82.5,67.92,67.92,82.5,50,82.5"/>
	<polygon fill="#225282" points="47.5,52.5 52.5,57.5 67.5,32.5 42.5,47.5 	"/>
</g>
</svg>
