<?xml version="1.0" encoding="utf-8"?>
<!-- Generator: Adobe Illustrator 16.0.0, SVG Export Plug-In . SVG Version: 6.00 Build 0)  -->
<!DOCTYPE svg PUBLIC "-//W3C//DTD SVG 1.1//EN" "http://www.w3.org/Graphics/SVG/1.1/DTD/svg11.dtd">
<svg version="1.1" id="Layer_1" xmlns="http://www.w3.org/2000/svg" xmlns:xlink="http://www.w3.org/1999/xlink" x="0px" y="0px"
	 width="100px" height="100px" viewBox="0 0 100 100" enable-background="new 0 0 100 100" xml:space="preserve">
<g>
	<g>
		<path fill="#547190" d="M17.641,82.816c7.93,7.926,18.457,10.254,26.659,2.047L15.59,56.152
			C7.387,64.355,9.711,74.893,17.641,82.816z"/>
		<path fill="#547190" d="M56.604,15.138l28.724,28.71c8.2-8.203,5.866-18.74-2.052-26.66C75.346,9.259,64.818,6.93,56.604,15.138z"
			/>
		<polygon fill="#547190" points="46.731,75.127 50.833,71.025 46.731,66.914 42.63,71.016 		"/>
		<polygon fill="#547190" points="54.936,66.924 59.036,62.822 54.936,58.711 50.833,62.812 		"/>
		<polygon fill="#547190" points="63.139,58.721 67.24,54.619 63.139,50.508 59.036,54.609 		"/>
		<polygon fill="#547190" points="71.332,50.518 75.432,46.407 71.332,42.305 67.24,46.407 		"/>
		
			<rect x="27.425" y="51.713" transform="matrix(-0.7072 0.707 -0.707 -0.7072 90.3826 71.7932)" fill="#547190" width="5.8" height="5.799"/>
		
			<rect x="35.63" y="43.506" transform="matrix(-0.707 0.7072 -0.7072 -0.707 98.5893 51.9686)" fill="#547190" width="5.8" height="5.8"/>
		
			<rect x="43.832" y="35.303" transform="matrix(-0.7071 0.7071 -0.7071 -0.7071 106.7901 32.1723)" fill="#547190" width="5.8" height="5.8"/>
		
			<rect x="52.033" y="27.097" transform="matrix(-0.7071 0.7071 -0.7071 -0.7071 114.9889 12.3682)" fill="#547190" width="5.8" height="5.799"/>
		
			<rect x="35.629" y="59.91" transform="matrix(-0.7069 0.7073 -0.7073 -0.7069 110.1913 79.9582)" fill="#547190" width="5.8" height="5.799"/>
		
			<rect x="43.831" y="51.709" transform="matrix(-0.7071 0.7071 -0.7071 -0.7071 118.3894 60.1803)" fill="#547190" width="5.8" height="5.8"/>
		
			<rect x="52.035" y="43.503" transform="matrix(-0.7071 0.7071 -0.7071 -0.7071 126.5909 40.3734)" fill="#547190" width="5.8" height="5.798"/>
		
			<rect x="60.238" y="35.307" transform="matrix(-0.7071 0.7071 -0.7071 -0.7071 134.8006 20.5769)" fill="#547190" width="5.8" height="5.8"/>
	</g>
	
		<line fill="none" stroke="#547190" stroke-width="0.6666" stroke-miterlimit="10" x1="15.797" y1="56.279" x2="56.812" y2="15.265"/>
	
		<line fill="none" stroke="#547190" stroke-width="0.6666" stroke-miterlimit="10" x1="43.504" y1="84.785" x2="84.52" y2="43.771"/>
</g>
</svg>
