<?xml version="1.0" encoding="utf-8"?>
<!-- Generator: Adobe Illustrator 16.0.0, SVG Export Plug-In . SVG Version: 6.00 Build 0)  -->
<!DOCTYPE svg PUBLIC "-//W3C//DTD SVG 1.1//EN" "http://www.w3.org/Graphics/SVG/1.1/DTD/svg11.dtd">
<svg version="1.1" id="Layer_1" xmlns="http://www.w3.org/2000/svg" xmlns:xlink="http://www.w3.org/1999/xlink" x="0px" y="0px"
	 width="100px" height="100px" viewBox="0 0 100 100" enable-background="new 0 0 100 100" xml:space="preserve">
<g>
	<g>
		<path fill="#225282" d="M21.743,78.715c6.938,6.935,16.15,8.972,23.326,1.791L19.948,55.384
			C12.771,62.562,14.804,71.781,21.743,78.715z"/>
		<path fill="#225282" d="M55.835,19.496l25.134,25.121c7.175-7.178,5.133-16.397-1.796-23.328
			C72.234,14.352,63.023,12.314,55.835,19.496z"/>
		<polygon fill="#225282" points="47.197,71.986 50.786,68.397 47.197,64.8 43.608,68.389 		"/>
		<polygon fill="#225282" points="54.376,64.809 57.964,61.22 54.376,57.622 50.786,61.211 		"/>
		<polygon fill="#225282" points="61.554,57.631 65.143,54.042 61.554,50.444 57.964,54.033 		"/>
		<polygon fill="#225282" points="68.723,50.453 72.31,46.856 68.723,43.267 65.143,46.856 		"/>
		
			<rect x="30.305" y="51.498" transform="matrix(0.7073 -0.707 0.707 0.7073 -28.5863 39.037)" fill="#225282" width="5.075" height="5.074"/>
		
			<rect x="37.483" y="44.32" transform="matrix(0.7069 -0.7073 0.7073 0.7069 -21.4125 42.04)" fill="#225282" width="5.075" height="5.075"/>
		
			<rect x="44.661" y="37.14" transform="matrix(0.7072 -0.707 0.707 0.7072 -14.2331 44.9872)" fill="#225282" width="5.075" height="5.075"/>
		
			<rect x="51.838" y="29.963" transform="matrix(0.7071 -0.7072 0.7072 0.7071 -7.0542 47.9727)" fill="#225282" width="5.074" height="5.075"/>
		
			<rect x="37.484" y="58.671" transform="matrix(0.707 -0.7073 0.7073 0.707 -31.5622 46.2411)" fill="#225282" width="5.074" height="5.075"/>
		
			<rect x="44.66" y="51.496" transform="matrix(0.7071 -0.7071 0.7071 0.7071 -24.3834 49.1996)" fill="#225282" width="5.075" height="5.075"/>
		
			<rect x="51.838" y="44.32" transform="matrix(0.7071 -0.7071 0.7071 0.7071 -17.206 52.1735)" fill="#225282" width="5.075" height="5.073"/>
		
			<rect x="59.017" y="37.143" transform="matrix(0.7072 -0.7071 0.7071 0.7072 -10.0304 55.1426)" fill="#225282" width="5.075" height="5.074"/>
	</g>
	
		<line fill="none" stroke="#225282" stroke-width="0.5833" stroke-miterlimit="10" x1="20.129" y1="55.494" x2="56.018" y2="19.607"/>
	
		<line fill="none" stroke="#225282" stroke-width="0.5833" stroke-miterlimit="10" x1="44.373" y1="80.438" x2="80.262" y2="44.55"/>
</g>
</svg>
