<?xml version="1.0" encoding="utf-8"?>
<!-- Generator: Adobe Illustrator 16.0.0, SVG Export Plug-In . SVG Version: 6.00 Build 0)  -->
<!DOCTYPE svg PUBLIC "-//W3C//DTD SVG 1.1//EN" "http://www.w3.org/Graphics/SVG/1.1/DTD/svg11.dtd">
<svg version="1.1" id="Layer_1" xmlns="http://www.w3.org/2000/svg" xmlns:xlink="http://www.w3.org/1999/xlink" x="0px" y="0px"
	 width="100px" height="100px" viewBox="0 0 100 100" enable-background="new 0 0 100 100" xml:space="preserve">
<path fill="#225282" d="M50,33.667c5.154,0,9.334-4.179,9.334-9.333S55.154,15,50,15s-9.333,4.179-9.333,9.333
	S44.846,33.667,50,33.667 M50,17.333c3.859,0,7,3.14,7,7c0,3.86-3.141,7-7,7c-3.86,0-7-3.14-7-7C43,20.473,46.14,17.333,50,17.333"
	/>
<path fill="#225282" d="M57,38.333H43c-2.577,0-4.667,2.089-4.667,4.667v18.667L43,66.333v16.334C43,83.955,44.043,85,45.333,85
	h9.333C55.957,85,57,83.955,57,82.667V66.333l4.666-4.666V43C61.666,40.423,59.577,38.333,57,38.333"/>
</svg>
