<?xml version="1.0" encoding="utf-8"?>
<!-- Generator: Adobe Illustrator 16.0.0, SVG Export Plug-In . SVG Version: 6.00 Build 0)  -->
<!DOCTYPE svg PUBLIC "-//W3C//DTD SVG 1.1//EN" "http://www.w3.org/Graphics/SVG/1.1/DTD/svg11.dtd">
<svg version="1.1" id="Layer_1" xmlns="http://www.w3.org/2000/svg" xmlns:xlink="http://www.w3.org/1999/xlink" x="0px" y="0px"
	 width="100px" height="100px" viewBox="0 0 100 100" enable-background="new 0 0 100 100" xml:space="preserve">
<polygon fill="#225282" points="46.5,44.367 41.15,39.017 37.85,42.316 46.5,50.966 62.15,35.316 58.85,32.017 "/>
<g>
	<path fill="#225282" d="M75.667,40.667C75.667,26.495,64.177,15,50,15c-14.172,0-25.667,11.495-25.667,25.667
		c0,9.824,5.526,18.358,13.636,22.672L36,85l14-9.333L64,85l-1.97-21.661C70.143,59.025,75.667,50.492,75.667,40.667 M50,64
		c-12.886,0-23.333-10.447-23.333-23.333S37.114,17.333,50,17.333c12.887,0,23.333,10.447,23.333,23.333S62.887,64,50,64"/>
</g>
</svg>
