<?xml version="1.0" encoding="utf-8"?>
<!-- Generator: Adobe Illustrator 16.0.0, SVG Export Plug-In . SVG Version: 6.00 Build 0)  -->
<!DOCTYPE svg PUBLIC "-//W3C//DTD SVG 1.1//EN" "http://www.w3.org/Graphics/SVG/1.1/DTD/svg11.dtd">
<svg version="1.1" id="Layer_1" xmlns="http://www.w3.org/2000/svg" xmlns:xlink="http://www.w3.org/1999/xlink" x="0px" y="0px"
	 width="100px" height="100px" viewBox="0 0 100 100" enable-background="new 0 0 100 100" xml:space="preserve">
<path fill="#225282" d="M83.132,63.243c1.106-1.106,1.106-2.901,0-4.006c-1.105-1.107-2.897-1.105-4.003,0.001l-6.273,4.271
	l-20.82-20.82l17.656-17.655c0.096-0.085,0.202-0.15,0.295-0.242c2.525-2.528,2.529-6.628-0.002-9.158
	c-2.529-2.529-6.628-2.528-9.156,0L42.904,33.559l-9.442-9.443c0,0-0.001-0.001-0.003-0.003c-0.001-0.001-0.003-0.001-0.003-0.003
	l-0.492-0.492l-0.05,0.05c-2.542-2.043-6.253-1.913-8.612,0.445c-2.359,2.36-2.489,6.071-0.445,8.613l-0.022,0.022l0.212,0.212
	c0.089,0.101,0.157,0.213,0.254,0.311c0.097,0.096,0.209,0.164,0.31,0.253l9.164,9.164L15.356,61.106l0.051,0.051
	c-2.043,2.544-1.914,6.253,0.445,8.612c2.359,2.361,6.071,2.488,8.613,0.446l0.022,0.021l0.22-0.22
	c0.098-0.088,0.209-0.153,0.303-0.248c0.094-0.096,0.161-0.205,0.248-0.304L42.905,51.82l20.82,20.821l-4.272,6.271l0,0l0,0
	l-0.217,0.216l0.022,0.022c-0.894,1.112-0.839,2.735,0.194,3.767c1.032,1.03,2.653,1.088,3.767,0.195l0.009,0.011l0.099-0.099
	c0.043-0.037,0.091-0.065,0.133-0.107c0.041-0.043,0.069-0.091,0.108-0.134l5.149-5.149l0.317,0.317
	c0.085,0.096,0.148,0.203,0.241,0.295c2.528,2.529,6.63,2.529,9.158,0c2.529-2.529,2.529-6.628,0-9.157l-0.585-0.587l5.156-5.156
	C83.046,63.309,83.093,63.283,83.132,63.243z"/>
</svg>
