<?xml version="1.0" encoding="utf-8"?>
<!-- Generator: Adobe Illustrator 16.0.0, SVG Export Plug-In . SVG Version: 6.00 Build 0)  -->
<!DOCTYPE svg PUBLIC "-//W3C//DTD SVG 1.1//EN" "http://www.w3.org/Graphics/SVG/1.1/DTD/svg11.dtd">
<svg version="1.1" id="Layer_1" xmlns="http://www.w3.org/2000/svg" xmlns:xlink="http://www.w3.org/1999/xlink" x="0px" y="0px"
	 width="100px" height="100px" viewBox="0 0 100 100" enable-background="new 0 0 100 100" xml:space="preserve">
<rect x="35.666" y="78" fill="#225282" width="23.333" height="7"/>
<g>
	<path fill="#225282" d="M30.007,56.824c4.783,4.783,11.054,7.174,17.325,7.174c5.908,0,11.815-2.124,16.479-6.369l0.021,0.021
		l1.649-1.65l-0.021-0.021c8.752-9.614,8.485-24.514-0.804-33.804C59.873,17.392,53.602,15,47.331,15
		c-5.908,0-11.814,2.125-16.479,6.37l-0.021-0.021L29.183,23l0.021,0.021C20.452,32.634,20.718,47.535,30.007,56.824 M47.331,17.333
		c5.922,0,11.489,2.305,15.676,6.491c8.366,8.368,8.633,21.812,0.803,30.503L32.504,23.021
		C36.581,19.345,41.801,17.333,47.331,17.333 M62.16,55.977c-4.076,3.677-9.297,5.688-14.828,5.688
		c-5.922,0-11.489-2.305-15.675-6.491c-8.367-8.366-8.633-21.811-0.803-30.502L62.16,55.977z"/>
	<path fill="#225282" d="M71.256,15.575l-3.3,3.299c5.509,5.509,8.543,12.833,8.543,20.625c0,7.792-3.034,15.116-8.543,20.625
		c-5.507,5.509-12.831,8.542-20.624,8.542s-15.118-3.033-20.624-8.542l-3.3,3.299c6.388,6.391,14.884,9.91,23.924,9.91
		c9.04,0,17.536-3.52,23.924-9.91c6.391-6.389,9.91-14.885,9.91-23.923C81.166,30.461,77.646,21.964,71.256,15.575"/>
</g>
</svg>
