<?xml version="1.0" encoding="utf-8"?>
<!-- Generator: Adobe Illustrator 16.0.0, SVG Export Plug-In . SVG Version: 6.00 Build 0)  -->
<!DOCTYPE svg PUBLIC "-//W3C//DTD SVG 1.1//EN" "http://www.w3.org/Graphics/SVG/1.1/DTD/svg11.dtd">
<svg version="1.1" id="Layer_1" xmlns="http://www.w3.org/2000/svg" xmlns:xlink="http://www.w3.org/1999/xlink" x="0px" y="0px"
	 width="120px" height="120px" viewBox="0 0 120 120" enable-background="new 0 0 120 120" xml:space="preserve">
<path fill="#245383" d="M60,34.333c8.1,0,14.666-6.566,14.666-14.666C74.666,11.568,68.1,5,60,5
	c-8.099,0-14.667,6.567-14.667,14.667C45.333,27.766,51.901,34.333,60,34.333 M60,8.667c6.067,0,11,4.933,11,11
	c0,6.065-4.933,11-11,11c-6.065,0-11-4.935-11-11C49,13.601,53.935,8.667,60,8.667"/>
<path fill="#245383" d="M71,41.667H49c-4.05,0-7.333,3.283-7.333,7.333v29.334L49,85.666v25.668c0,2.024,1.641,3.666,3.667,3.666
	h14.667c2.025,0,3.666-1.642,3.666-3.666V85.666l7.334-7.332V49C78.334,44.95,75.05,41.667,71,41.667"/>
</svg>
