<?xml version="1.0" encoding="UTF-8" standalone="no"?>
<svg width="28px" height="14px" viewBox="0 0 28 14" version="1.1" xmlns="http://www.w3.org/2000/svg" xmlns:xlink="http://www.w3.org/1999/xlink">
    <!-- Generator: Sketch 40.3 (33839) - http://www.bohemiancoding.com/sketch -->
    <title>Page 1</title>
    <desc>Created with Sketch.</desc>
    <defs>
        <polygon id="path-1" points="0 13.9439119 27.9863091 13.9439119 27.9863091 0 0 0"></polygon>
    </defs>
    <g id="Page-1" stroke="none" stroke-width="1" fill="none" fill-rule="evenodd">
        <g>
            <mask id="mask-2" fill="white">
                <use xlink:href="#path-1"></use>
            </mask>
            <g id="Clip-2"></g>
            <path d="M24.209436,3.80217987 L24.209436,10.1399535 C24.9055495,10.1399535 25.5673035,10.1462931 26.2287924,10.1372239 C26.5462435,10.1328214 26.71813,9.94897233 26.7187483,9.6344566 C26.7223697,7.85927421 26.7228997,6.08409182 26.718395,4.30890943 C26.7175117,3.96877107 26.5201868,3.80367673 26.1846284,3.80270818 C25.5377136,3.80085912 24.8907987,3.80217987 24.209436,3.80217987 L24.209436,3.80217987 Z M3.81589653,3.80394088 C3.0991142,3.80394088 2.42464101,3.7950478 1.75060946,3.80799119 C1.45621199,3.81371447 1.28777035,3.99729937 1.28697539,4.29006667 C1.28220568,6.07995346 1.27496278,7.8699283 1.3014612,9.65937484 C1.30375773,9.81865786 1.53252744,10.1016516 1.67023091,10.1105447 C2.38047697,10.156595 3.09522776,10.1319409 3.81589653,10.1319409 L3.81589653,3.80394088 Z M19.7564644,12.6573119 L22.8800101,12.6573119 L22.8800101,1.28623019 L19.7564644,1.28623019 L19.7564644,12.6573119 Z M5.12103218,12.6464818 L8.25173249,12.6464818 L8.25173249,1.29838113 L5.12103218,1.29838113 L5.12103218,12.6464818 Z M9.54220568,6.31865786 L18.4288934,6.31865786 C18.440376,6.14264528 18.4605148,5.97446918 18.4607798,5.80620503 C18.463253,4.17797862 18.4614864,2.54966415 18.4626347,0.921437736 C18.4631647,0.18630566 18.6424707,0.0026327044 19.3636694,0.00166415094 C20.6880606,-9.68553457e-05 22.0124517,-0.00124150943 23.3368429,0.00236855346 C23.9352656,0.00395345912 24.1671268,0.231739623 24.1733981,0.819563522 C24.1791394,1.3601044 24.1746347,1.90073333 24.1746347,2.48952579 C24.3582688,2.50282138 24.5122246,2.52043145 24.6663571,2.52395346 C25.2691079,2.53777736 25.8745085,2.51567673 26.4739028,2.56612956 C27.2621426,2.63243145 27.9418271,3.27836855 27.9572845,4.06386541 C27.9954423,5.99815472 27.9963256,7.93420503 27.9579028,9.86840629 C27.9419155,10.6766201 27.2541931,11.3060038 26.4413098,11.3826956 C26.0763382,11.4171233 25.7072151,11.4121925 25.339947,11.4174755 C24.9740038,11.4228465 24.6078839,11.4187082 24.1746347,11.4187082 C24.1746347,12.0097899 24.1778145,12.5612491 24.1738397,13.1127082 C24.1696,13.7096893 23.9456,13.9392365 23.3540669,13.9409094 C22.0002625,13.9448717 20.646458,13.9449597 19.2926536,13.9409975 C18.6617262,13.9392365 18.4640479,13.7331107 18.4630763,13.0836516 C18.4607798,11.4554252 18.4622814,9.82711069 18.4622814,8.19888428 L18.4622814,7.63976478 L9.5743571,7.63976478 C9.56393438,7.80160126 9.54388391,7.96995346 9.54370726,8.13830566 C9.5413224,9.78123648 9.5435306,11.4241673 9.54149905,13.0670981 C9.5407041,13.7375132 9.34276088,13.9399409 8.68303849,13.9413497 C7.35864732,13.9442553 6.03425615,13.9439031 4.70986498,13.9416138 C4.02797224,13.9404692 3.83232555,13.7380415 3.83011735,13.0410352 C3.82835079,12.5170478 3.82976404,11.9930604 3.82976404,11.4186201 C3.21915205,11.4186201 2.66312681,11.4205572 2.10710158,11.4182679 C0.667530599,11.4121925 0.00498170347,10.751727 0.0023318612,9.31474591 C-0.000494637224,7.74516101 -0.00120126183,6.1755761 0.00259684543,4.60599119 C0.00604164038,3.19736226 0.674155205,2.53223019 2.08466625,2.52562642 C2.64192808,2.52298491 3.19927823,2.52518616 3.82976404,2.52518616 C3.82976404,1.96703522 3.82861577,1.44595346 3.83002902,0.924959748 C3.83188391,0.210079245 4.03433186,0.0026327044 4.7376,0.00166415094 C6.03257792,-9.68553457e-05 7.32746751,0.000167295598 8.62244543,0.00157610063 C9.35786498,0.00236855346 9.54105741,0.181550943 9.54176404,0.90312327 C9.54326562,2.51673333 9.54220568,4.1303434 9.54220568,5.74386541 L9.54220568,6.31865786 L9.54220568,6.31865786 Z" id="Fill-1" fill="#283D56" mask="url(#mask-2)"></path>
        </g>
    </g>
</svg>