<?xml version="1.0" encoding="utf-8"?>
<!-- Generator: Adobe Illustrator 16.0.0, SVG Export Plug-In . SVG Version: 6.00 Build 0)  -->
<!DOCTYPE svg PUBLIC "-//W3C//DTD SVG 1.1//EN" "http://www.w3.org/Graphics/SVG/1.1/DTD/svg11.dtd">
<svg version="1.1" id="Layer_1" xmlns="http://www.w3.org/2000/svg" xmlns:xlink="http://www.w3.org/1999/xlink" x="0px" y="0px"
	 width="120px" height="120px" viewBox="0 0 120 120" enable-background="new 0 0 120 120" xml:space="preserve">
<path fill="#245383" d="M45.261,20.001c4.806,0.266,9.299,1.567,13.673,3.481c0.76,0.333,1.939,0.161,2.76-0.176
	c6.818-2.796,13.804-3.672,21.021-1.978c10.698,2.511,16.974,11.865,15.768,23.524c-0.657,6.363-2.938,12.049-7.287,16.833
	c-3.281,3.607-4.642,8.005-5.01,12.741c-0.367,4.712-0.499,9.44-0.875,14.15c-0.467,5.864-3.294,9.41-8.438,10.864
	c-4.333,1.225-7.715-0.113-9.14-4.361c-1.281-3.824-1.784-7.909-2.635-11.877c-0.643-3.002-1.172-6.035-1.988-8.988
	c-0.408-1.477-1.149-3.144-3.077-3.146c-1.891-0.003-2.754,1.561-3.138,3.076c-0.962,3.801-1.707,7.656-2.511,11.496
	c-0.527,2.516-0.824,5.094-1.541,7.552c-2.167,7.441-9.314,9.073-14.745,3.448c-2.427-2.514-3.224-5.688-3.48-9.019
	c-0.352-4.568-0.479-9.153-0.89-13.714c-0.445-4.961-2.293-9.293-5.553-13.212c-5.917-7.117-7.933-15.445-6.221-24.543
	c1.662-8.83,8.645-14.962,17.738-15.812C41.544,20.167,43.406,20.111,45.261,20.001z M70.515,34.956
	c0.021,0.107,0.043,0.214,0.065,0.321c-3.35-1.835-6.749-3.586-10.035-5.526c-5.531-3.265-11.439-5.162-17.88-5.137
	c-7.31,0.029-12.979,3.487-15.075,9.607c-2.947,8.599-1.223,16.539,4.439,23.539c2.571,3.178,4.883,6.489,5.49,10.529
	c0.807,5.359,1.085,10.797,1.711,16.188c0.263,2.253,0.638,4.536,1.326,6.687c0.713,2.231,3.355,4.149,4.959,3.843
	c2.28-0.437,2.655-2.537,3.025-4.276c0.789-3.703,1.127-7.502,1.935-11.199c0.62-2.837,1.303-5.771,2.611-8.328
	c2.884-5.642,9.95-5.854,13.466-0.583c2.346,3.516,2.619,7.645,3.315,11.655c0.605,3.506,1.152,7.054,2.176,10.448
	c0.758,2.512,2.452,2.887,4.755,1.59c2.661-1.5,3.467-4.112,3.729-6.877c0.313-3.278,0.414-6.575,0.563-9.867
	c0.344-7.539,2.236-14.319,7.353-20.327c5.447-6.395,6.979-14.177,3.944-22.172c-3.797-10.01-18.57-13.652-28.46-7.195
	C66.141,30.254,68.327,32.605,70.515,34.956z"/>
<rect x="48.667" y="39.556" fill="#245383" width="22.666" height="23.111"/>
<rect x="11.779" y="48.556" fill="#245383" width="96.442" height="5.111"/>
</svg>
