<?xml version="1.0" encoding="UTF-8" standalone="no"?>
<svg width="18px" height="17px" viewBox="0 0 18 17" version="1.1" xmlns="http://www.w3.org/2000/svg" xmlns:xlink="http://www.w3.org/1999/xlink">
    <!-- Generator: Sketch 40.3 (33839) - http://www.bohemiancoding.com/sketch -->
    <title>Page 1</title>
    <desc>Created with Sketch.</desc>
    <defs>
        <polygon id="path-1" points="0.0797304267 16.8682171 13.0087015 16.8682171 13.0087015 0.104562815 0.0797304267 0.104562815"></polygon>
        <polygon id="path-3" points="0.0797304267 16.8682171 13.0087015 16.8682171 13.0087015 0.104562815 0.0797304267 0.104562815"></polygon>
        <polygon id="path-5" points="0 16.8954961 17.1428571 16.8954961 17.1428571 0.131782946 0 0.131782946"></polygon>
    </defs>
    <g id="Page-1" stroke="none" stroke-width="1" fill="none" fill-rule="evenodd">
        <g>
            <g id="Group-3" transform="translate(2.109890, 0.027279)">
                <mask id="mask-2" fill="white">
                    <use xlink:href="#path-1"></use>
                </mask>
                <g id="Clip-2"></g>
                <path d="M4.12114286,15.473176 L4.12114286,15.4737031 L4.12114286,15.473176 M2.68193407,9.94079612 C2.64527473,11.5753 2.81920879,13.0158194 3.22918681,14.4712302 C3.32808791,14.8223 3.46378022,15.2235791 3.72131868,15.5397264 C3.80861538,15.6467341 3.89485714,15.6856101 3.93982418,15.6809977 C3.98610989,15.6738814 4.05613187,15.6089124 4.10821978,15.4796333 L4.11771429,15.4564395 C4.12008791,15.4506411 4.12246154,15.4448426 4.12483516,15.4390442 C4.13947253,15.3077884 4.15674725,15.1766643 4.17402198,15.0456721 C4.21661538,14.7237264 4.2567033,14.4198349 4.25301099,14.1291217 C4.24668132,13.6441605 4.212,13.1431217 4.17850549,12.6586876 C4.15912088,12.3790442 4.13973626,12.0994008 4.12523077,11.8196256 C4.092,11.1820597 4.18654945,10.5774395 4.40624176,10.022238 C4.78549451,9.06338527 5.54571429,8.53533101 6.54672527,8.53533101 L6.54725275,8.53533101 C7.54773626,8.53533101 8.30782418,9.06219922 8.68786813,10.0190752 C8.9043956,10.564393 8.99986813,11.1537264 8.97151648,11.7703388 C8.95463736,12.1356411 8.9309011,12.5037109 8.90782418,12.8596566 C8.88184615,13.2600132 8.85494505,13.6740752 8.83872527,14.0779899 C8.82,14.5429202 8.82487912,15.0339434 8.98602198,15.4742302 C9.05617582,15.6657109 9.10905495,15.6729589 9.14057143,15.6773078 C9.2309011,15.6890364 9.28417582,15.6651837 9.32650549,15.5934938 C9.53841758,15.2338581 9.73714286,14.8814705 9.84250549,14.5260519 C10.3091868,12.950455 10.4951209,11.3506101 10.3952967,9.77066434 C10.3210549,8.59463333 10.5175385,7.53615271 10.9964835,6.53526124 C11.1577582,6.19802868 11.2958242,5.85078062 11.4420659,5.4831062 L11.4522198,5.45727674 C11.8347692,4.49512946 11.9186374,3.66937752 11.7162198,2.85838527 C11.4614505,1.83798992 10.7141538,1.23969535 9.76958242,1.30005194 C9.32808791,1.32759457 8.85771429,1.47769535 8.40303297,1.62278837 C7.6047033,1.87765659 6.54,2.12988915 5.38602198,1.81585039 C5.14496703,1.75022248 4.90628571,1.67734651 4.67551648,1.60684264 C4.39410989,1.52092016 4.12826374,1.43974186 3.8578022,1.37029225 C2.78347253,1.09433876 1.87740659,1.5344938 1.49274725,2.51878062 C1.2658022,3.09941628 1.20962637,3.69902868 1.32105495,4.3518814 C1.44883516,5.10133101 1.76004396,5.81414496 2.04751648,6.4127031 C2.61336264,7.59084264 2.83252747,8.80996667 2.68193407,9.94079612 M3.92492308,16.8682302 C3.50782418,16.8682302 3.10641758,16.6634395 2.80087912,16.2885171 C2.40659341,15.8044783 2.21854945,15.2606101 2.08681319,14.7926488 C1.64716484,13.2319434 1.45410989,11.6248504 1.49630769,9.87938527 L1.50184615,9.81138527 C1.62923077,8.90287364 1.44791209,7.90501318 0.97767033,6.92599767 C0.654461538,6.25337752 0.30356044,5.44515271 0.151120879,4.55126899 C0.00448351648,3.69217597 0.084,2.86312946 0.387296703,2.08732326 C0.989142857,0.547571318 2.50259341,-0.202010078 4.15318681,0.221672093 C4.44949451,0.297710853 4.74079121,0.386664341 5.02232967,0.472586822 C5.25481319,0.543617829 5.47450549,0.610695349 5.69802198,0.67157907 C6.37305495,0.855152713 7.0741978,0.801912403 8.04184615,0.493013178 C8.54136264,0.333555814 9.10734066,0.153013178 9.6956044,0.116377519 C11.2258022,0.0207031008 12.4714286,0.984563566 12.8676923,2.57136202 C13.1295824,3.62022248 13.0273846,4.70756357 12.5551648,5.89519147 L12.545011,5.92115271 C12.397978,6.29093566 12.2459341,6.67336977 12.0672527,7.04684264 C11.677978,7.86047054 11.5185495,8.72707519 11.5798681,9.69581163 C11.6883956,11.4150519 11.4867692,13.153269 10.9805275,14.8626256 C10.8371868,15.3465326 10.5900659,15.7861605 10.3492747,16.1950829 C10.0653626,16.6772767 9.54079121,16.9289822 8.97969231,16.8522845 C8.61824176,16.8028659 8.13243956,16.5943853 7.87147253,15.8818349 C7.63938462,15.2474318 7.62923077,14.617114 7.65283516,14.0304163 C7.66971429,13.6118736 7.69701099,13.1905636 7.72338462,12.7829589 C7.7461978,12.4325481 7.76967033,12.0700132 7.78602198,11.7159124 C7.80646154,11.2683775 7.73881319,10.8445636 7.58479121,10.4565946 C7.38276923,9.94817597 7.06285714,9.72137752 6.54725275,9.72137752 L6.54698901,9.72137752 C6.03125275,9.72137752 5.71147253,9.9487031 5.50984615,10.458176 C5.35318681,10.8541837 5.28606593,11.2915713 5.31046154,11.7579512 C5.32457143,12.0310054 5.34356044,12.3037961 5.36241758,12.5767186 C5.3970989,13.0776256 5.43296703,13.5955326 5.43969231,14.1137031 C5.44457143,14.4900752 5.39683516,14.851424 5.35068132,15.2009124 C5.33301099,15.3338814 5.31547253,15.4669822 5.3010989,15.5999512 C5.28698901,15.7326566 5.24426374,15.8370287 5.21591209,15.9059512 L5.20905495,15.9228194 C5.00043956,16.4408581 4.60259341,16.7801992 4.11758242,16.8537341 C4.0530989,16.8633543 3.98887912,16.8682302 3.92492308,16.8682302" id="Fill-1" fill="#283D56" mask="url(#mask-2)"></path>
            </g>
            <g id="Group-6" transform="translate(2.109890, 0.027279)">
                <mask id="mask-4" fill="white">
                    <use xlink:href="#path-3"></use>
                </mask>
                <g id="Clip-5"></g>
                <path d="M4.12114286,15.473176 L4.12114286,15.4737031 L4.12114286,15.473176 M2.68193407,9.94079612 C2.64527473,11.5753 2.81920879,13.0158194 3.22918681,14.4712302 C3.32808791,14.8223 3.46378022,15.2235791 3.72131868,15.5397264 C3.80861538,15.6467341 3.89485714,15.6856101 3.93982418,15.6809977 C3.98610989,15.6738814 4.05613187,15.6089124 4.10821978,15.4796333 L4.11771429,15.4564395 C4.12008791,15.4506411 4.12246154,15.4448426 4.12483516,15.4390442 C4.13947253,15.3077884 4.15674725,15.1766643 4.17402198,15.0456721 C4.21661538,14.7237264 4.2567033,14.4198349 4.25301099,14.1291217 C4.24668132,13.6441605 4.212,13.1431217 4.17850549,12.6586876 C4.15912088,12.3790442 4.13973626,12.0994008 4.12523077,11.8196256 C4.092,11.1820597 4.18654945,10.5774395 4.40624176,10.022238 C4.78549451,9.06338527 5.54571429,8.53533101 6.54672527,8.53533101 L6.54725275,8.53533101 C7.54773626,8.53533101 8.30782418,9.06219922 8.68786813,10.0190752 C8.9043956,10.564393 8.99986813,11.1537264 8.97151648,11.7703388 C8.95463736,12.1356411 8.9309011,12.5037109 8.90782418,12.8596566 C8.88184615,13.2600132 8.85494505,13.6740752 8.83872527,14.0779899 C8.82,14.5429202 8.82487912,15.0339434 8.98602198,15.4742302 C9.05617582,15.6657109 9.10905495,15.6729589 9.14057143,15.6773078 C9.2309011,15.6890364 9.28417582,15.6651837 9.32650549,15.5934938 C9.53841758,15.2338581 9.73714286,14.8814705 9.84250549,14.5260519 C10.3091868,12.950455 10.4951209,11.3506101 10.3952967,9.77066434 C10.3210549,8.59463333 10.5175385,7.53615271 10.9964835,6.53526124 C11.1577582,6.19802868 11.2958242,5.85078062 11.4420659,5.4831062 L11.4522198,5.45727674 C11.8347692,4.49512946 11.9186374,3.66937752 11.7162198,2.85838527 C11.4614505,1.83798992 10.7141538,1.23969535 9.76958242,1.30005194 C9.32808791,1.32759457 8.85771429,1.47769535 8.40303297,1.62278837 C7.6047033,1.87765659 6.54,2.12988915 5.38602198,1.81585039 C5.14496703,1.75022248 4.90628571,1.67734651 4.67551648,1.60684264 C4.39410989,1.52092016 4.12826374,1.43974186 3.8578022,1.37029225 C2.78347253,1.09433876 1.87740659,1.5344938 1.49274725,2.51878062 C1.2658022,3.09941628 1.20962637,3.69902868 1.32105495,4.3518814 C1.44883516,5.10133101 1.76004396,5.81414496 2.04751648,6.4127031 C2.61336264,7.59084264 2.83252747,8.80996667 2.68193407,9.94079612 M3.92492308,16.8682302 C3.50782418,16.8682302 3.10641758,16.6634395 2.80087912,16.2885171 C2.40659341,15.8044783 2.21854945,15.2606101 2.08681319,14.7926488 C1.64716484,13.2319434 1.45410989,11.6248504 1.49630769,9.87938527 L1.50184615,9.81138527 C1.62923077,8.90287364 1.44791209,7.90501318 0.97767033,6.92599767 C0.654461538,6.25337752 0.30356044,5.44515271 0.151120879,4.55126899 C0.00448351648,3.69217597 0.084,2.86312946 0.387296703,2.08732326 C0.989142857,0.547571318 2.50259341,-0.202010078 4.15318681,0.221672093 C4.44949451,0.297710853 4.74079121,0.386664341 5.02232967,0.472586822 C5.25481319,0.543617829 5.47450549,0.610695349 5.69802198,0.67157907 C6.37305495,0.855152713 7.0741978,0.801912403 8.04184615,0.493013178 C8.54136264,0.333555814 9.10734066,0.153013178 9.6956044,0.116377519 C11.2258022,0.0207031008 12.4714286,0.984563566 12.8676923,2.57136202 C13.1295824,3.62022248 13.0273846,4.70756357 12.5551648,5.89519147 L12.545011,5.92115271 C12.397978,6.29093566 12.2459341,6.67336977 12.0672527,7.04684264 C11.677978,7.86047054 11.5185495,8.72707519 11.5798681,9.69581163 C11.6883956,11.4150519 11.4867692,13.153269 10.9805275,14.8626256 C10.8371868,15.3465326 10.5900659,15.7861605 10.3492747,16.1950829 C10.0653626,16.6772767 9.54079121,16.9289822 8.97969231,16.8522845 C8.61824176,16.8028659 8.13243956,16.5943853 7.87147253,15.8818349 C7.63938462,15.2474318 7.62923077,14.617114 7.65283516,14.0304163 C7.66971429,13.6118736 7.69701099,13.1905636 7.72338462,12.7829589 C7.7461978,12.4325481 7.76967033,12.0700132 7.78602198,11.7159124 C7.80646154,11.2683775 7.73881319,10.8445636 7.58479121,10.4565946 C7.38276923,9.94817597 7.06285714,9.72137752 6.54725275,9.72137752 L6.54698901,9.72137752 C6.03125275,9.72137752 5.71147253,9.9487031 5.50984615,10.458176 C5.35318681,10.8541837 5.28606593,11.2915713 5.31046154,11.7579512 C5.32457143,12.0310054 5.34356044,12.3037961 5.36241758,12.5767186 C5.3970989,13.0776256 5.43296703,13.5955326 5.43969231,14.1137031 C5.44457143,14.4900752 5.39683516,14.851424 5.35068132,15.2009124 C5.33301099,15.3338814 5.31547253,15.4669822 5.3010989,15.5999512 C5.28698901,15.7326566 5.24426374,15.8370287 5.21591209,15.9059512 L5.20905495,15.9228194 C5.00043956,16.4408581 4.60259341,16.7801992 4.11758242,16.8537341 C4.0530989,16.8633543 3.98887912,16.8682302 3.92492308,16.8682302" id="Fill-4" fill="#283D56" mask="url(#mask-4)"></path>
            </g>
            <mask id="mask-6" fill="white">
                <use xlink:href="#path-5"></use>
            </mask>
            <g id="Clip-8"></g>
            <path d="M7.12773626,6.69154264 L10.0151209,6.69154264 L10.0151209,3.80602326 L7.12773626,3.80602326 L7.12773626,6.69154264 Z M10.6085275,7.87758915 L6.53432967,7.87758915 C6.20650549,7.87758915 5.94092308,7.61217829 5.94092308,7.28456589 L5.94092308,3.213 C5.94092308,2.8853876 6.20650549,2.61997674 6.53432967,2.61997674 L10.6085275,2.61997674 C10.9363516,2.61997674 11.2019341,2.8853876 11.2019341,3.213 L11.2019341,7.28456589 C11.2019341,7.61217829 10.9363516,7.87758915 10.6085275,7.87758915 L10.6085275,7.87758915 Z" id="Fill-7" fill="#283D56" mask="url(#mask-6)"></path>
            <path d="M6.32967033,5.97360233 L0.593406593,5.97360233 C0.265714286,5.97360233 0,5.70805969 0,5.38057907 C0,5.05309845 0.265714286,4.78755581 0.593406593,4.78755581 L6.32967033,4.78755581 C6.65736264,4.78755581 6.92307692,5.05309845 6.92307692,5.38057907 C6.92307692,5.70805969 6.65736264,5.97360233 6.32967033,5.97360233" id="Fill-9" fill="#283D56" mask="url(#mask-6)"></path>
            <path d="M16.5494505,5.97360233 L10.8131868,5.97360233 C10.4854945,5.97360233 10.2197802,5.70805969 10.2197802,5.38057907 C10.2197802,5.05309845 10.4854945,4.78755581 10.8131868,4.78755581 L16.5494505,4.78755581 C16.8771429,4.78755581 17.1428571,5.05309845 17.1428571,5.38057907 C17.1428571,5.70805969 16.8771429,5.97360233 16.5494505,5.97360233" id="Fill-10" fill="#283D56" mask="url(#mask-6)"></path>
        </g>
    </g>
</svg>