<?xml version="1.0" encoding="utf-8"?>
<!-- Generator: Adobe Illustrator 16.0.0, SVG Export Plug-In . SVG Version: 6.00 Build 0)  -->
<!DOCTYPE svg PUBLIC "-//W3C//DTD SVG 1.1//EN" "http://www.w3.org/Graphics/SVG/1.1/DTD/svg11.dtd">
<svg version="1.1" id="Layer_1" xmlns="http://www.w3.org/2000/svg" xmlns:xlink="http://www.w3.org/1999/xlink" x="0px" y="0px"
	 width="120px" height="120px" viewBox="0 0 120 120" enable-background="new 0 0 120 120" xml:space="preserve">
<path fill="#245383" d="M60,41c-11.045,0-20,8.948-20,20s8.955,20,20,20c11.052,0,20-8.948,20-20S71.052,41,60,41 M60,67.667
	c-3.685,0-6.667-2.983-6.667-6.667c0-3.683,2.981-6.667,6.667-6.667c3.685,0,6.667,2.983,6.667,6.667
	C66.667,64.684,63.685,67.667,60,67.667"/>
<path fill="#245383" d="M60,31c-22.435,0-39.512,12.083-50,30c10.488,17.917,27.565,30,50,30c22.435,0,39.512-12.083,50-30
	C99.512,43.083,82.435,31,60,31 M60,87.667c-19.073,0-35.376-9.451-46.106-26.667C24.624,43.784,40.927,34.333,60,34.333
	S95.376,43.784,106.105,61C95.376,78.216,79.073,87.667,60,87.667"/>
</svg>
