<?xml version="1.0" encoding="utf-8"?>
<!-- Generator: Adobe Illustrator 16.0.0, SVG Export Plug-In . SVG Version: 6.00 Build 0)  -->
<!DOCTYPE svg PUBLIC "-//W3C//DTD SVG 1.1//EN" "http://www.w3.org/Graphics/SVG/1.1/DTD/svg11.dtd">
<svg version="1.1" id="Layer_1" xmlns="http://www.w3.org/2000/svg" xmlns:xlink="http://www.w3.org/1999/xlink" x="0px" y="0px"
	 width="120px" height="120px" viewBox="0 0 120 120" enable-background="new 0 0 120 120" xml:space="preserve">
<path fill="#245383" d="M60,43c-9.94,0-18,8.053-18,18c0,9.946,8.06,18,18,18c9.946,0,18-8.054,18-18C78,51.053,69.946,43,60,43
	 M60,67c-3.316,0-6-2.685-6-6c0-3.315,2.683-6,6-6s6,2.685,6,6S63.317,67,60,67"/>
<path fill="#245383" d="M60,34c-20.191,0-35.561,10.875-45,27c9.439,16.125,24.809,27,45,27c20.192,0,35.561-10.875,45-27
	C95.561,44.875,80.192,34,60,34 M60,85c-17.166,0-31.838-8.506-41.495-24C28.162,45.506,42.834,37,60,37s31.838,8.506,41.495,24
	C91.838,76.494,77.166,85,60,85"/>
</svg>
