<?xml version="1.0" encoding="utf-8"?>
<!-- Generator: Adobe Illustrator 17.1.0, SVG Export Plug-In . SVG Version: 6.00 Build 0)  -->
<!DOCTYPE svg PUBLIC "-//W3C//DTD SVG 1.1//EN" "http://www.w3.org/Graphics/SVG/1.1/DTD/svg11.dtd">
<svg version="1.1" id="Layer_1" xmlns="http://www.w3.org/2000/svg" xmlns:xlink="http://www.w3.org/1999/xlink" x="0px" y="0px"
	 viewBox="0 0 18 11.6" enable-background="new 0 0 18 11.6" xml:space="preserve">
<path fill="#354F6A" d="M17.8,5.1C17.9,5.3,18,5.6,18,5.8c0,0.2-0.1,0.5-0.2,0.7C16.9,8,15.6,9.3,14,10.2c-1.6,0.9-3.3,1.4-5,1.4
	c-1.8,0-3.4-0.5-5-1.4C2.4,9.2,1.1,8,0.2,6.5C0.1,6.2,0,6,0,5.8c0-0.2,0.1-0.5,0.2-0.7C1.1,3.6,2.4,2.3,4,1.4C5.6,0.5,7.2,0,9,0
	c1.8,0,3.4,0.5,5,1.4C15.6,2.3,16.9,3.6,17.8,5.1L17.8,5.1z M16.7,5.8c-1-1.6-2.3-2.8-3.8-3.5c0.4,0.7,0.6,1.4,0.6,2.3
	c0,1.2-0.4,2.3-1.3,3.2C11.3,8.6,10.2,9,9,9C7.8,9,6.7,8.6,5.8,7.7C4.9,6.8,4.5,5.7,4.5,4.5c0-0.8,0.2-1.6,0.6-2.3
	C3.6,3,2.3,4.2,1.3,5.8c0.9,1.4,2,2.5,3.3,3.3C6,9.9,7.4,10.3,9,10.3s3-0.4,4.4-1.2C14.7,8.3,15.8,7.2,16.7,5.8z M9,2.4
	c0.1,0,0.2,0,0.3-0.1c0.1-0.1,0.1-0.2,0.1-0.3c0-0.1,0-0.2-0.1-0.3C9.2,1.5,9.1,1.4,9,1.4c-0.8,0-1.6,0.3-2.2,0.9
	C6.2,2.9,5.9,3.7,5.9,4.5c0,0.1,0,0.2,0.1,0.3C6.2,4.9,6.3,5,6.4,5c0.1,0,0.2,0,0.3-0.1c0.1-0.1,0.1-0.2,0.1-0.3
	c0-0.6,0.2-1.1,0.6-1.5C7.9,2.6,8.4,2.4,9,2.4L9,2.4z"/>
</svg>
