<?xml version="1.0" encoding="utf-8"?>
<!-- Generator: Adobe Illustrator 16.0.0, SVG Export Plug-In . SVG Version: 6.00 Build 0)  -->
<!DOCTYPE svg PUBLIC "-//W3C//DTD SVG 1.1//EN" "http://www.w3.org/Graphics/SVG/1.1/DTD/svg11.dtd">
<svg version="1.1" id="Layer_1" xmlns="http://www.w3.org/2000/svg" xmlns:xlink="http://www.w3.org/1999/xlink" x="0px" y="0px"
	 width="120px" height="120px" viewBox="0 0 120 120" enable-background="new 0 0 120 120" xml:space="preserve">
<g>
	<path fill="#245383" d="M110,57.5h-3.615c-1.59-9.458-9.818-16.667-19.718-16.667c-4.521,0-8.691,1.504-12.043,4.036l-0.178-0.149
		c-3.992-3.581-9.122-5.554-14.446-5.554s-10.454,1.973-14.411,5.522l-0.214,0.181c-3.351-2.532-7.522-4.036-12.042-4.036
		c-9.9,0-18.128,7.208-19.718,16.667H10v6.667h3.616c1.589,9.458,9.818,16.666,19.718,16.666c11.035,0,20-8.955,20-20
		c0-5.31-2.076-10.134-5.454-13.714C51.244,44.143,55.542,42.5,60,42.5c4.443,0,8.726,1.632,12.119,4.621
		c-3.377,3.581-5.452,8.403-5.452,13.713c0,11.044,8.965,20,20,20c9.899,0,18.128-7.208,19.718-16.666H110V57.5z M33.333,74.167
		C25.982,74.167,20,68.186,20,60.833S25.982,47.5,33.333,47.5c7.351,0,13.333,5.981,13.333,13.333S40.685,74.167,33.333,74.167
		 M86.667,74.167c-7.353,0-13.334-5.981-13.334-13.333S79.314,47.5,86.667,47.5C94.019,47.5,100,53.481,100,60.833
		S94.019,74.167,86.667,74.167"/>
</g>
</svg>
