<?xml version="1.0" encoding="UTF-8" standalone="no"?>
<svg width="31px" height="11px" viewBox="0 0 31 11" version="1.1" xmlns="http://www.w3.org/2000/svg" xmlns:xlink="http://www.w3.org/1999/xlink">
    <!-- Generator: Sketch 40.3 (33839) - http://www.bohemiancoding.com/sketch -->
    <title>glasses icon</title>
    <desc>Created with Sketch.</desc>
    <defs>
        <polygon id="path-1" points="32.883005 1.5170879e-15 32.883005 11.3778741 0.584974909 11.3778741 0.584974909 1.5170879e-15 32.883005 0"></polygon>
    </defs>
    <g id="Page-1" stroke="none" stroke-width="1" fill="none" fill-rule="evenodd">
        <g id="glasses-icon" transform="translate(-2.000000, 0.000000)">
            <mask id="mask-2" fill="white">
                <use xlink:href="#path-1"></use>
            </mask>
            <g id="Clip-2"></g>
            <path d="M24.0653065,9.13790882 C21.9854499,9.1368137 20.3212743,7.42136167 20.3275622,5.28498623 C20.3338502,3.16135398 22.018921,1.46053671 24.1043885,1.47278211 C26.164414,1.48492796 27.7788665,3.17887587 27.7759644,5.32500781 C27.7730622,7.45053162 26.1299754,9.13900394 24.0653065,9.13790882 M10.118755,9.13790882 C8.06637176,9.12247761 6.44727588,7.41250117 6.45733658,5.2707497 C6.46739728,3.14811302 8.11938392,1.46501673 10.1852137,1.47278211 C12.2632323,1.48064705 13.9223775,3.20266979 13.9103821,5.33924433 C13.8984834,7.45949167 12.2075115,9.15353913 10.118755,9.13790882 M32.1199627,3.93719507 C32.1199627,3.56375994 31.9179748,3.24876428 31.5310247,3.16075665 L31.5310247,3.13138758 C30.853862,3.13138758 30.1375207,3.11296969 29.4556179,3.11296969 L29.4273706,3.11296969 C29.4206957,3.11296969 29.4141175,3.12511555 29.4074426,3.1252151 C29.3654585,3.12640978 29.3233777,3.13208448 29.2813936,3.13357782 C28.922304,3.14612189 28.7219606,3.04686441 28.5280986,2.70419214 C26.8658578,-0.233411196 23.2174022,-0.891975132 20.72051,1.29636861 C20.263909,1.69648478 19.9052062,2.21557055 19.4873969,2.69533164 C18.8078158,2.14876838 18.0474589,1.72684941 17.13416,1.7420815 C16.215347,1.75741315 15.441737,2.19297131 14.7083699,2.7496893 C14.637945,2.6477438 14.5912208,2.58353009 14.5477856,2.51692702 C12.2729061,-0.973113395 7.67168267,-0.803171046 5.60691704,2.83749783 C5.52536731,2.98125691 5.29735698,3.10122207 5.13309667,3.10709588 C4.74701722,3.12093419 4.36045409,3.11296969 3.97108557,3.11296969 L3.86148196,3.11296969 C3.47724053,3.11296969 3.09019371,3.13128803 2.70324363,3.13128803 L2.70324363,3.13935207 C2.31629355,3.17897542 1.99996186,3.5225437 1.99996186,3.93719507 C1.99996186,4.35184643 2.31629355,4.69551427 2.70324363,4.73513761 L2.70324363,4.80542426 L4.97541451,4.80542426 C5.04003517,5.40276116 5.04729049,5.95997693 5.16753522,6.50096506 C5.79429762,9.32099258 8.4485817,11.0560572 11.2160487,10.4943614 C13.9115429,9.94730032 15.7168585,7.21766978 15.2325905,4.39495425 C15.182674,4.10385206 15.2569684,3.97861042 15.4874939,3.85068077 C16.422849,3.33139589 17.3755201,3.24139713 18.366596,3.66441121 C18.8016246,3.85018299 19.1934116,4.0429237 18.962886,4.65549269 C18.9187737,4.77286939 18.9450863,4.91802226 18.9386049,5.0505315 C18.8027854,7.80106883 20.6649827,10.1131609 23.3695703,10.5519048 C25.8870675,10.9602842 28.4145287,9.1951536 29.0262968,6.5907647 C29.164051,6.00427942 29.1939429,5.40276116 29.282361,4.7058681 L31.5310247,4.7058681 L31.5310247,4.71373304 C31.9179748,4.6257254 32.1199627,4.31063019 32.1199627,3.93719507" id="Fill-1" fill="#283D56" mask="url(#mask-2)"></path>
        </g>
    </g>
</svg>