<?xml version="1.0" encoding="utf-8"?>
<!-- Generator: Adobe Illustrator 16.0.0, SVG Export Plug-In . SVG Version: 6.00 Build 0)  -->
<!DOCTYPE svg PUBLIC "-//W3C//DTD SVG 1.1//EN" "http://www.w3.org/Graphics/SVG/1.1/DTD/svg11.dtd">
<svg version="1.1" id="Layer_1" xmlns="http://www.w3.org/2000/svg" xmlns:xlink="http://www.w3.org/1999/xlink" x="0px" y="0px"
	 width="120px" height="120px" viewBox="0 0 120 120" enable-background="new 0 0 120 120" xml:space="preserve">
<g>
	<rect x="35" y="11.125" fill="#245383" width="50" height="6"/>
	<rect x="35" y="56.125" fill="#245383" width="50" height="6"/>
	<rect x="35" y="101.125" fill="#245383" width="50" height="6"/>
	<path fill="#245383" d="M60,21.625c-8.285,0-15,6.716-15,15c0,8.285,6.715,15,15,15c8.284,0,15-6.715,15-15
		C75,28.341,68.284,21.625,60,21.625z M60,46.625c-5.523,0-10-4.477-10-10s4.477-10,10-10c5.523,0,10,4.477,10,10
		S65.523,46.625,60,46.625z"/>
	<path fill="#245383" d="M60,66.625c-8.285,0-15,6.716-15,15c0,8.285,6.715,15,15,15c8.284,0,15-6.715,15-15
		C75,73.341,68.284,66.625,60,66.625z M60,91.625c-5.523,0-10-4.477-10-10s4.477-10,10-10c5.523,0,10,4.477,10,10
		S65.523,91.625,60,91.625z"/>
</g>
</svg>
