<?xml version="1.0" encoding="utf-8"?>
<!-- Generator: Adobe Illustrator 17.1.0, SVG Export Plug-In . SVG Version: 6.00 Build 0)  -->
<!DOCTYPE svg PUBLIC "-//W3C//DTD SVG 1.1//EN" "http://www.w3.org/Graphics/SVG/1.1/DTD/svg11.dtd">
<svg version="1.1" id="Layer_1" xmlns="http://www.w3.org/2000/svg" xmlns:xlink="http://www.w3.org/1999/xlink" x="0px" y="0px"
	 viewBox="0 0 18 15.4" enable-background="new 0 0 18 15.4" xml:space="preserve">
<path fill="#354F6A" d="M16.8,3.2c0.8,1,1.2,2.1,1.2,3.2s-0.4,2.2-1.2,3.2c-0.8,1-1.9,1.8-3.3,2.3c-1.4,0.6-2.9,0.9-4.5,0.9
	c-0.5,0-1,0-1.5-0.1c-1.3,1.2-2.9,2-4.6,2.4c-0.3,0.1-0.7,0.2-1.1,0.2H1.7c-0.1,0-0.2,0-0.3-0.1c-0.1-0.1-0.1-0.2-0.2-0.3v0
	c0,0,0-0.1,0-0.1c0-0.1,0-0.1,0-0.1c0,0,0,0,0-0.1c0-0.1,0.1-0.1,0.1-0.1c0,0,0,0,0.1-0.1c0,0,0.1-0.1,0.1-0.1
	c0-0.1,0.2-0.2,0.3-0.3c0.2-0.2,0.3-0.3,0.3-0.4c0.1-0.1,0.2-0.2,0.3-0.4c0.1-0.2,0.2-0.4,0.3-0.5c0.1-0.2,0.2-0.4,0.3-0.6
	s0.2-0.5,0.3-0.8c-1.1-0.6-1.9-1.3-2.5-2.2C0.3,8.4,0,7.4,0,6.4c0-1.2,0.4-2.2,1.2-3.2c0.8-1,1.9-1.8,3.3-2.3C5.9,0.3,7.4,0,9,0
	c1.6,0,3.1,0.3,4.5,0.9C14.9,1.4,16,2.2,16.8,3.2z M12.8,2C11.6,1.5,10.4,1.3,9,1.3S6.4,1.5,5.2,2C4,2.4,3,3.1,2.3,3.9
	c-0.7,0.8-1,1.6-1,2.6c0,0.8,0.2,1.5,0.7,2.1c0.5,0.7,1.2,1.3,2,1.8l0.9,0.5l-0.3,1c-0.2,0.6-0.4,1.2-0.7,1.7c1-0.4,1.9-1,2.8-1.7
	l0.4-0.4l0.6,0.1c0.5,0.1,0.9,0.1,1.3,0.1c1.4,0,2.6-0.2,3.8-0.7C14,10.4,15,9.8,15.7,9c0.7-0.8,1-1.6,1-2.6c0-0.9-0.3-1.8-1-2.6
	C15,3.1,14,2.4,12.8,2z"/>
</svg>
