<?xml version="1.0" encoding="utf-8"?>
<!-- Generator: Adobe Illustrator 16.0.0, SVG Export Plug-In . SVG Version: 6.00 Build 0)  -->
<!DOCTYPE svg PUBLIC "-//W3C//DTD SVG 1.1//EN" "http://www.w3.org/Graphics/SVG/1.1/DTD/svg11.dtd">
<svg version="1.1" id="Layer_1" xmlns="http://www.w3.org/2000/svg" xmlns:xlink="http://www.w3.org/1999/xlink" x="0px" y="0px"
	 width="120px" height="120px" viewBox="0 0 120 120" enable-background="new 0 0 120 120" xml:space="preserve">
<path fill="#225282" d="M98.281,21.717C91.045,14.478,81.045,10,70,10c-11.044,0-21.044,4.478-28.281,11.716
	C34.479,28.955,30,38.955,30,50c0,3.469,0.442,6.834,1.273,10.044C30.852,60.018,30.428,60,30,60
	c-5.521,0-10.521,2.239-14.141,5.859C12.239,69.478,10,74.478,10,80c0,5.847,2.239,11.143,5.859,14.975L30,110v-10
	c5.521,0,10.521-2.239,14.14-5.859c2.638-2.638,4.54-6.011,5.378-9.783C55.509,87.938,62.513,90,70,90v20l28.281-30.054
	C105.521,72.283,110,61.694,110,50C110,38.955,105.521,28.955,98.281,21.717 M95.854,77.662l-22.521,23.932V90v-3.333H70
	c-7.22,0-14.116-2.079-20.018-5.943C49.99,80.483,50,80.242,50,80c0-5.522-2.24-10.522-5.86-14.141
	c-2.514-2.515-5.697-4.361-9.256-5.255c-1.021-3.396-1.551-6.958-1.551-10.604c0-9.793,3.815-19,10.743-25.927
	C51,17.147,60.206,13.333,70,13.333s19.001,3.814,25.925,10.741C102.853,31,106.667,40.207,106.667,50
	C106.667,60.458,102.828,70.28,95.854,77.662"/>
</svg>
