<?xml version="1.0" encoding="utf-8"?>
<!-- Generator: Adobe Illustrator 16.0.0, SVG Export Plug-In . SVG Version: 6.00 Build 0)  -->
<!DOCTYPE svg PUBLIC "-//W3C//DTD SVG 1.1//EN" "http://www.w3.org/Graphics/SVG/1.1/DTD/svg11.dtd">
<svg version="1.1" id="Layer_1" xmlns="http://www.w3.org/2000/svg" xmlns:xlink="http://www.w3.org/1999/xlink" x="0px" y="0px"
	 width="120px" height="120px" viewBox="0 0 120 120" enable-background="new 0 0 120 120" xml:space="preserve">
<path fill="none" stroke="#245383" stroke-width="5" stroke-miterlimit="10" d="M93.875,81.734c0,1.082-0.854,1.958-1.904,1.958
	H21.372c-1.051,0-1.904-0.876-1.904-1.958V67.542c0-1.081,0.853-1.958,1.904-1.958h70.599c1.051,0,1.904,0.877,1.904,1.958V81.734z"
	/>
<rect x="21.965" y="42.643" fill="#245383" width="2.291" height="22.941"/>
<rect x="25.786" y="42.643" fill="#245383" width="2.291" height="22.941"/>
<rect x="29.606" y="42.643" fill="#245383" width="2.292" height="22.941"/>
<rect x="33.427" y="42.643" fill="#245383" width="2.291" height="22.941"/>
<rect x="37.248" y="42.643" fill="#245383" width="2.291" height="22.941"/>
<rect x="41.47" y="42.643" fill="#245383" width="2.291" height="22.941"/>
<rect x="45.291" y="42.643" fill="#245383" width="2.291" height="22.941"/>
<rect x="49.111" y="42.643" fill="#245383" width="2.292" height="22.941"/>
<rect x="52.932" y="42.643" fill="#245383" width="2.291" height="22.941"/>
<rect x="56.752" y="42.643" fill="#245383" width="2.291" height="22.941"/>
<rect x="60.572" y="42.643" fill="#245383" width="2.292" height="22.941"/>
<rect x="64.394" y="42.643" fill="#245383" width="2.291" height="22.941"/>
<rect x="68.215" y="42.643" fill="#245383" width="2.291" height="22.941"/>
<rect x="72.035" y="42.643" fill="#245383" width="2.291" height="22.941"/>
<rect x="75.855" y="42.643" fill="#245383" width="2.291" height="22.941"/>
<rect x="80.078" y="42.643" fill="#245383" width="2.291" height="22.941"/>
<rect x="83.898" y="42.643" fill="#245383" width="2.291" height="22.941"/>
<rect x="87.719" y="42.643" fill="#245383" width="2.291" height="22.941"/>
<rect x="93.939" y="74.639" fill="#245383" stroke="#245383" stroke-width="5" stroke-miterlimit="10" width="210.064" height="9.054"/>
<path fill="#245383" d="M88.48,38.584c0,0.85-6.111,0.216-19.612-0.621c-3.843,0.312-8.067,0.484-12.5,0.484
	c-4.434,0-8.657-0.172-12.5-0.484c-3.842-0.312-11.741,1.042-14.646,0.484c-2.905-0.557-3.341-0.905-4.966-1.642
	c-1.625-0.736,0-3.666,0-4.517s0.527-10.975,8.787-8.076c2.906-0.557,38.378,6.57,41.283,7.127
	c2.904,0.557,10.238,1.169,11.863,1.907C87.812,33.984,88.48,37.734,88.48,38.584z"/>
</svg>
