<?xml version="1.0" encoding="utf-8"?>
<!-- Generator: Adobe Illustrator 16.0.0, SVG Export Plug-In . SVG Version: 6.00 Build 0)  -->
<!DOCTYPE svg PUBLIC "-//W3C//DTD SVG 1.1//EN" "http://www.w3.org/Graphics/SVG/1.1/DTD/svg11.dtd">
<svg version="1.1" id="Layer_1" xmlns="http://www.w3.org/2000/svg" xmlns:xlink="http://www.w3.org/1999/xlink" x="0px" y="0px"
	 width="120px" height="120px" viewBox="0 0 120 120" enable-background="new 0 0 120 120" xml:space="preserve">
<path fill-rule="evenodd" clip-rule="evenodd" fill="#245383" d="M44.572,15c5.406,0.299,10.462,1.763,15.383,3.916
	c0.855,0.374,2.181,0.181,3.105-0.198c7.671-3.146,15.53-4.132,23.649-2.226c12.036,2.825,19.095,13.349,17.739,26.466
	c-0.739,7.158-3.305,13.555-8.199,18.938c-3.69,4.057-5.221,9.006-5.635,14.333c-0.413,5.301-0.562,10.622-0.985,15.921
	c-0.525,6.596-3.706,10.586-9.492,12.221c-4.876,1.378-8.68-0.127-10.283-4.906c-1.441-4.303-2.007-8.898-2.964-13.363
	c-0.723-3.376-1.318-6.789-2.237-10.111c-0.459-1.661-1.293-3.537-3.461-3.539c-2.127-0.003-3.098,1.756-3.53,3.461
	c-1.082,4.276-1.92,8.614-2.825,12.934c-0.593,2.83-0.927,5.73-1.733,8.496c-2.438,8.371-10.479,10.207-16.588,3.879
	c-2.73-2.829-3.627-6.399-3.915-10.147c-0.396-5.138-0.54-10.296-1.001-15.428c-0.501-5.581-2.58-10.454-6.247-14.864
	c-6.657-8.005-8.925-17.375-6.999-27.61c1.87-9.934,9.726-16.833,19.956-17.789C40.392,15.187,42.485,15.124,44.572,15z
	 M72.983,31.825c0.024,0.121,0.049,0.241,0.073,0.361c-3.767-2.065-7.591-4.034-11.289-6.217
	c-6.223-3.673-12.869-5.808-20.116-5.779c-8.223,0.032-14.601,3.923-16.96,10.808c-3.315,9.674-1.376,18.607,4.994,26.482
	c2.893,3.576,5.494,7.3,6.177,11.844c0.907,6.029,1.22,12.146,1.925,18.211c0.295,2.536,0.717,5.103,1.491,7.524
	c0.802,2.51,3.775,4.668,5.579,4.322c2.565-0.491,2.987-2.853,3.404-4.811c0.887-4.166,1.268-8.439,2.176-12.599
	c0.697-3.192,1.466-6.492,2.937-9.37c3.245-6.346,11.195-6.585,15.15-0.656c2.639,3.956,2.947,8.601,3.729,13.113
	c0.682,3.944,1.297,7.936,2.449,11.754c0.853,2.827,2.759,3.249,5.348,1.79c2.995-1.688,3.901-4.627,4.197-7.738
	c0.352-3.687,0.466-7.397,0.634-11.1c0.387-8.482,2.515-16.11,8.271-22.869c6.129-7.194,7.852-15.949,4.438-24.944
	c-4.272-11.261-20.892-15.359-32.018-8.094C68.062,26.535,70.522,29.18,72.983,31.825z"/>
</svg>
