<?xml version="1.0" encoding="utf-8"?>
<!-- Generator: Adobe Illustrator 16.0.0, SVG Export Plug-In . SVG Version: 6.00 Build 0)  -->
<!DOCTYPE svg PUBLIC "-//W3C//DTD SVG 1.1//EN" "http://www.w3.org/Graphics/SVG/1.1/DTD/svg11.dtd">
<svg version="1.1" id="Layer_1" xmlns="http://www.w3.org/2000/svg" xmlns:xlink="http://www.w3.org/1999/xlink" x="0px" y="0px"
	 width="120px" height="120px" viewBox="0 0 120 120" enable-background="new 0 0 120 120" xml:space="preserve">
<path fill="#245383" d="M46.415,20c4.805,0.266,9.3,1.567,13.674,3.481c0.76,0.333,1.939,0.161,2.76-0.176
	c6.817-2.796,13.804-3.673,21.021-1.978c10.698,2.511,16.974,11.865,15.768,23.525c-0.656,6.363-2.938,12.049-7.288,16.833
	c-3.28,3.606-4.641,8.005-5.009,12.739c-0.366,4.712-0.499,9.443-0.875,14.153c-0.467,5.862-3.295,9.409-8.438,10.862
	c-4.333,1.225-7.715-0.112-9.141-4.361c-1.28-3.824-1.783-7.909-2.634-11.878c-0.643-3-1.172-6.035-1.989-8.987
	c-0.408-1.477-1.149-3.144-3.076-3.146c-1.891-0.003-2.753,1.561-3.137,3.076c-0.962,3.802-1.707,7.657-2.511,11.497
	c-0.527,2.516-0.824,5.094-1.541,7.552c-2.167,7.44-9.314,9.072-14.745,3.448c-2.427-2.516-3.224-5.688-3.48-9.02
	c-0.352-4.566-0.48-9.151-0.89-13.714c-0.445-4.96-2.293-9.292-5.553-13.212c-5.917-7.116-7.933-15.444-6.222-24.542
	c1.663-8.83,8.646-14.962,17.739-15.812C42.699,20.167,44.56,20.111,46.415,20z M71.668,34.956c0.021,0.107,0.044,0.214,0.066,0.321
	c-3.35-1.835-6.749-3.586-10.035-5.526c-5.532-3.265-11.439-5.162-17.881-5.137c-7.309,0.029-12.979,3.487-15.075,9.607
	c-2.946,8.599-1.223,16.54,4.439,23.54c2.571,3.179,4.883,6.488,5.49,10.528c0.806,5.359,1.084,10.797,1.711,16.188
	c0.262,2.253,0.637,4.536,1.325,6.688c0.713,2.23,3.356,4.149,4.959,3.842c2.28-0.436,2.655-2.536,3.026-4.276
	c0.788-3.703,1.127-7.501,1.934-11.199c0.619-2.837,1.303-5.771,2.61-8.328c2.885-5.642,9.95-5.854,13.466-0.583
	c2.347,3.516,2.62,7.645,3.315,11.656c0.606,3.505,1.152,7.054,2.177,10.447c0.758,2.513,2.452,2.888,4.754,1.591
	c2.662-1.5,3.468-4.113,3.73-6.878c0.313-3.277,0.414-6.575,0.563-9.867c0.344-7.539,2.236-14.319,7.353-20.327
	c5.447-6.395,6.979-14.177,3.944-22.172c-3.797-10.01-18.57-13.653-28.46-7.195C67.295,30.254,69.48,32.605,71.668,34.956z"/>
</svg>
