<?xml version="1.0" encoding="UTF-8" standalone="no"?>
<svg width="18px" height="18px" viewBox="0 0 18 18" version="1.1" xmlns="http://www.w3.org/2000/svg" xmlns:xlink="http://www.w3.org/1999/xlink">
    <!-- Generator: Sketch 40.3 (33839) - http://www.bohemiancoding.com/sketch -->
    <title>Page 1</title>
    <desc>Created with Sketch.</desc>
    <defs>
        <polygon id="path-1" points="7.67084709 0.0888088235 0.106839424 0.0888088235 0.106839424 7.80768529 7.67084709 7.80768529 7.67084709 0.0888088235"></polygon>
    </defs>
    <g id="Page-1" stroke="none" stroke-width="1" fill="none" fill-rule="evenodd">
        <g>
            <path d="M2.3823,12.5259485 C3.73086522,13.0140662 4.81986522,14.1157721 5.30456087,15.4817868 C5.78860435,14.1182868 6.86547391,13.0029485 8.22982174,12.5383897 C7.2933,12.2109485 6.50573478,11.5956397 5.87756087,10.6984191 C5.63221304,10.3479485 5.43903913,9.97299265 5.29895217,9.57580147 C4.81882174,10.9377132 3.75186522,12.0435221 2.3823,12.5259485 L2.3823,12.5259485 Z M5.30103913,17.911125 C5.06638696,17.911125 4.54034348,17.8199338 4.53277826,17.0067574 L4.53199565,16.9542132 C4.47643043,15.0335074 2.82903913,13.3663897 0.934604348,13.3135809 C0.903821739,13.3127868 0.871734783,13.3111985 0.839778261,13.3092132 C0.820343478,13.3080221 0.80103913,13.3068309 0.781734783,13.3063015 C0.332386957,13.2917426 0.0189521739,12.9940809 0.00082173913,12.5652574 C-0.0136565217,12.2252426 0.170647826,11.8341397 0.731126087,11.7563162 C0.851908696,11.7395074 0.973865217,11.7261397 1.09582174,11.7130368 C1.34299565,11.6864338 1.57647391,11.6612868 1.78738696,11.6042426 C3.35951739,11.1789926 4.4879087,9.71940441 4.53147391,8.05493382 C4.54973478,7.36127206 4.93986522,7.18034559 5.26399565,7.15069853 C5.30521304,7.14686029 5.34643043,7.14818382 5.38751739,7.15427206 C5.58695217,7.18444853 6.05247391,7.32725735 6.06708261,8.00146324 C6.08364783,8.78128676 6.30616957,9.48236029 6.72825652,10.0853603 C7.47095217,11.1460368 8.44921304,11.6911985 9.71899565,11.7520809 L9.75212609,11.7530074 C9.86377826,11.7557868 10.0715609,11.7608162 10.2540391,11.9021691 C10.4665174,12.0662868 10.7285609,12.4610956 10.5249522,12.8196397 C10.4178652,13.0085074 10.2016043,13.2312574 9.91595217,13.2906838 C9.72656087,13.3298603 9.5406913,13.354875 9.36082174,13.3789632 C9.11456087,13.4120515 8.88186522,13.4434191 8.67303913,13.5064191 C7.22403913,13.9439779 6.13008261,15.3932426 6.07203913,16.9524926 C6.07138696,16.9712868 6.07125652,16.9907426 6.07112609,17.0105956 C6.06434348,17.8176838 5.5356913,17.9092721 5.30873478,17.911125 L5.30103913,17.911125 Z" id="Fill-1" fill="#283D56"></path>
            <g id="Group-5" transform="translate(5.478261, 0.043544)">
                <mask id="mask-2" fill="white">
                    <use xlink:href="#path-1"></use>
                </mask>
                <g id="Clip-4"></g>
                <path d="M3.93892174,0.621185294 L3.94022609,0.621185294 L3.93892174,0.621185294 Z M2.29557391,3.95939118 C2.98987826,4.30059706 3.54122609,4.85872941 3.87957391,5.57078824 C4.21361739,4.87527353 4.76783478,4.30761176 5.46044348,3.96402353 C5.01161739,3.74193529 4.61809565,3.41965588 4.28366087,2.99917059 C4.12322609,2.79759706 3.98757391,2.58239118 3.87696522,2.35461176 C3.5397913,3.05290588 2.98713913,3.61500882 2.29557391,3.95939118 L2.29557391,3.95939118 Z M3.87370435,7.80768529 C3.86874783,7.80768529 3.8637913,7.80768529 3.85883478,7.80755294 C3.71770435,7.80345 3.5847913,7.74111176 3.48957391,7.63549412 L3.47470435,7.62292059 C3.4040087,7.56005294 3.25687826,7.42915588 3.21318261,7.20865588 C3.18813913,7.08345 3.17692174,6.96221471 3.16687826,6.85540588 C3.15787826,6.75746471 3.14913913,6.66508235 3.13205217,6.59017059 C2.8910087,5.53227353 2.07044348,4.79533235 0.9894,4.66430294 C0.976356522,4.66456765 0.96266087,4.66589118 0.948573913,4.66668529 C0.816313043,4.67608235 0.539269565,4.69395 0.319747826,4.48721471 C0.22413913,4.39708235 0.109486957,4.23468529 0.106878261,3.97236176 C0.1044,3.6972 0.221008696,3.52805294 0.319226087,3.43447941 C0.54266087,3.22165588 0.825182609,3.24309706 0.960965217,3.25275882 C0.975182609,3.25395 0.989269565,3.25514118 1.00244348,3.25567059 C2.23648696,3.10743529 3.11653043,2.16230294 3.19374783,0.899655882 C3.20405217,0.732626471 3.26144348,0.600802941 3.30318261,0.50445 C3.31244348,0.483141176 3.32209565,0.461964706 3.32966087,0.440523529 C3.40544348,0.224920588 3.61009565,0.0815823529 3.83457391,0.0889941176 L3.94818261,0.0919058824 C4.16222609,0.0968029412 4.35409565,0.233788235 4.42831304,0.437479412 C4.43535652,0.456935294 4.44448696,0.475994118 4.45309565,0.495317647 C4.49326957,0.585052941 4.55418261,0.72045 4.56383478,0.888141176 C4.59670435,1.45275882 4.77057391,1.92578824 5.09548696,2.33396471 C5.52005217,2.86774412 6.05626957,3.16686176 6.73466087,3.24865588 C6.74874783,3.25011176 6.76322609,3.24997941 6.77770435,3.25037647 C6.85687826,3.25302353 6.97661739,3.25672941 7.10757391,3.30689118 C7.23566087,3.35586176 7.32957391,3.42839118 7.39818261,3.4812 C7.41305217,3.49271471 7.42753043,3.50422941 7.44266087,3.51468529 C7.58313913,3.61183235 7.66831304,3.77211176 7.6707913,3.94443529 C7.67326957,4.11675882 7.59305217,4.27968529 7.45544348,4.38080294 C7.44318261,4.39006765 7.43157391,4.40105294 7.41970435,4.41164118 C7.34496522,4.47755294 7.2200087,4.58767059 7.03753043,4.63293529 C6.90657391,4.66522941 6.78057391,4.68031765 6.66957391,4.69368529 C6.58322609,4.70387647 6.50183478,4.71367059 6.43426957,4.72955294 C5.41596522,4.96964118 4.67144348,5.84383235 4.58170435,6.90477353 C4.5804,6.91933235 4.5804,6.93389118 4.58013913,6.94871471 C4.57805217,7.03924412 4.57492174,7.17622941 4.51153043,7.32406765 C4.44213913,7.48567059 4.32866087,7.58083235 4.26083478,7.63774412 C4.25274783,7.64436176 4.24453043,7.65097941 4.23709565,7.65799412 C4.13953043,7.75447941 4.00935652,7.80768529 3.87370435,7.80768529 L3.87370435,7.80768529 Z" id="Fill-3" fill="#283D56" mask="url(#mask-2)"></path>
            </g>
            <path d="M13.743313,10.1097397 C13.9162696,10.2250191 14.0752696,10.3630632 14.2192696,10.5236074 C14.3130522,10.6281662 14.3969217,10.7378868 14.4708783,10.8526368 C14.6538783,10.5462397 14.8891826,10.2967544 15.1709217,10.1080191 C14.8878783,9.918225 14.6502261,9.67098971 14.4665739,9.37690147 C14.2795304,9.67112206 14.0353565,9.91862206 13.743313,10.1097397 M14.4985304,12.8727397 C14.4925304,12.8727397 14.4865304,12.8726074 14.4805304,12.872475 L14.4047478,12.8699603 C14.1866609,12.8636074 13.9955739,12.7200044 13.9256609,12.510225 C13.9218783,12.4987103 13.9169217,12.4873279 13.9122261,12.4759456 C13.8840522,12.4064603 13.8414,12.3016368 13.8320087,12.1675632 C13.8060522,11.8002838 13.6805739,11.4960044 13.4476174,11.2365926 C13.1934,10.9530926 12.8666609,10.7936074 12.4490087,10.7488721 C12.2875304,10.7316662 12.1647913,10.6608574 12.0916174,10.6186368 C12.0805304,10.6122838 12.0697043,10.6055338 12.0586174,10.599975 C11.8804435,10.5124897 11.7631826,10.3285191 11.7610957,10.1276074 C11.7590087,9.92669559 11.8659652,9.74034265 12.042313,9.64901912 C12.0540522,9.64279853 12.0656609,9.634725 12.0775304,9.62731324 C12.1529217,9.57966618 12.2787913,9.49998971 12.447313,9.47788676 C13.2601826,9.37134265 13.7528348,8.86628382 13.8346174,8.05575441 C13.8541826,7.86582794 13.9460087,7.73479853 14.0007913,7.65644559 C14.0069217,7.64744559 14.0134435,7.63871029 14.0190522,7.62984265 C14.1145304,7.46043088 14.2902261,7.35931324 14.4857478,7.36526912 C14.6781391,7.37082794 14.8508348,7.48478382 14.9367913,7.65948971 C14.9422696,7.67007794 14.949313,7.68093088 14.9559652,7.69204853 C15.0009652,7.76696029 15.0760957,7.89203382 15.096313,8.05985735 C15.1827913,8.77429853 15.5697913,9.25778382 16.1859652,9.42071029 C16.2275739,9.43182794 16.2847043,9.43963676 16.3453565,9.44784265 C16.4203565,9.45816618 16.5054,9.46981324 16.5960522,9.49151912 C16.7315739,9.52381324 16.8299217,9.59131324 16.8886174,9.63154853 C16.896313,9.63684265 16.9038783,9.64240147 16.9118348,9.64716618 C17.0658783,9.74166618 17.1651391,9.91253382 17.1677478,10.0951809 C17.1702261,10.2778279 17.0841391,10.4512103 16.9328348,10.5502103 L16.920313,10.5610632 C16.8477913,10.6207544 16.7125304,10.7316662 16.5082696,10.748475 C15.9639652,10.7933426 15.585313,11.0141074 15.3502696,11.4236074 C15.2722696,11.5597985 15.2232261,11.7501221 15.171313,11.9516956 C15.1420957,12.0651221 15.1118348,12.1825191 15.0737478,12.3017691 C15.0544435,12.3625191 15.0307043,12.4222103 15.0064435,12.4813721 L14.9837478,12.5377544 C14.9048348,12.7403868 14.7120522,12.8727397 14.4985304,12.8727397" id="Fill-6" fill="#283D56"></path>
        </g>
    </g>
</svg>